<svg version="1.1" xmlns="http://www.w3.org/2000/svg" xmlns:xlink="http://www.w3.org/1999/xlink" width="1600" height="800" style="width: 1600px; height: 800px;"><defs><clipPath id="TSiOsafaBrqN"><path fill="none" stroke="none" d=" M 155 31 L 1295 31 L 1295 528 L 155 528 L 155 31 Z"/></clipPath><clipPath id="yQgtxMzHGQfS"><path fill="none" stroke="none" d=" M 155 31 L 1295 31 L 1295 528 L 155 528 L 155 31 Z"/></clipPath></defs><g><g/><g/><g/><g transform="scale(1,1) translate(0.5,0.5)"><rect fill="#FFFFFF" stroke="none" x="0" y="0" width="1600" height="800"/><rect fill="#ffffff" stroke="none" x="0" y="0" width="1600" height="800"/><rect fill="#FFFFFF" stroke="none" x="155" y="31" width="1140" height="497"/><rect fill="#ffffff" stroke="none" x="155" y="31" width="1140" height="497"/><g><rect fill="none" stroke="#e5e5e5" x="155" y="31" width="1140" height="497" stroke-linejoin="bevel" stroke-miterlimit="10"/></g><g clip-path="url(#TSiOsafaBrqN)"><g><g/><g><path fill="none" stroke="#e5e5e5" paint-order="fill stroke markers" d=" M 155 443 L 1295 443" stroke-linejoin="bevel" stroke-miterlimit="10"/><path fill="none" stroke="#e5e5e5" paint-order="fill stroke markers" d=" M 155 358 L 1295 358" stroke-linejoin="bevel" stroke-miterlimit="10"/><path fill="none" stroke="#e5e5e5" paint-order="fill stroke markers" d=" M 155 274 L 1295 274" stroke-linejoin="bevel" stroke-miterlimit="10"/><path fill="none" stroke="#e5e5e5" paint-order="fill stroke markers" d=" M 155 189 L 1295 189" stroke-linejoin="bevel" stroke-miterlimit="10"/><path fill="none" stroke="#e5e5e5" paint-order="fill stroke markers" d=" M 155 104 L 1295 104" stroke-linejoin="bevel" stroke-miterlimit="10"/></g><g><path fill="none" stroke="none"/><rect fill="#8a4b9a" stroke="none" x="209.03263403263404" y="486.6985538178854" width="39.86013986013984" height="41.3014461821146"/><path fill="none" stroke="white" paint-order="fill stroke markers" d=" M 209.03263403263404 486.6985538178854 L 248.89277389277387 486.6985538178854 L 248.89277389277387 528 L 209.03263403263404 528 L 209.03263403263404 486.6985538178854 Z" stroke-linejoin="bevel" stroke-miterlimit="10"/><rect fill="#717cbb" stroke="none" x="253.32167832167835" y="494.62320096333264" width="39.86013986013984" height="33.376799036667364"/><path fill="none" stroke="white" paint-order="fill stroke markers" d=" M 253.32167832167835 494.62320096333264 L 293.1818181818182 494.62320096333264 L 293.1818181818182 528 L 253.32167832167835 528 L 253.32167832167835 494.62320096333264 Z" stroke-linejoin="bevel" stroke-miterlimit="10"/><rect fill="#89b9df" stroke="none" x="297.6107226107225" y="491.4509676790427" width="39.86013986013995" height="36.54903232095728"/><path fill="none" stroke="white" paint-order="fill stroke markers" d=" M 297.6107226107225 491.4509676790427 L 337.47086247086247 491.4509676790427 L 337.47086247086247 528 L 297.6107226107225 528 L 297.6107226107225 491.4509676790427 Z" stroke-linejoin="bevel" stroke-miterlimit="10"/><rect fill="#717cbb" stroke="none" x="403.90442890442887" y="476.37081784624576" width="39.86013986013995" height="51.62918215375424"/><path fill="none" stroke="white" paint-order="fill stroke markers" d=" M 403.90442890442887 476.37081784624576 L 443.7645687645688 476.37081784624576 L 443.7645687645688 528 L 403.90442890442887 528 L 403.90442890442887 476.37081784624576 Z" stroke-linejoin="bevel" stroke-miterlimit="10"/><rect fill="#89b9df" stroke="none" x="448.1934731934732" y="460.9378961341009" width="39.86013986013984" height="67.06210386589908"/><path fill="none" stroke="white" paint-order="fill stroke markers" d=" M 448.1934731934732 460.9378961341009 L 488.05361305361305 460.9378961341009 L 488.05361305361305 528 L 448.1934731934732 528 L 448.1934731934732 460.9378961341009 Z" stroke-linejoin="bevel" stroke-miterlimit="10"/><rect fill="#717cbb" stroke="none" x="554.4871794871794" y="472.10974058819943" width="39.86013986013995" height="55.89025941180057"/><path fill="none" stroke="white" paint-order="fill stroke markers" d=" M 554.4871794871794 472.10974058819943 L 594.3473193473194 472.10974058819943 L 594.3473193473194 528 L 554.4871794871794 528 L 554.4871794871794 472.10974058819943 Z" stroke-linejoin="bevel" stroke-miterlimit="10"/><rect fill="#89b9df" stroke="none" x="598.7762237762239" y="429.48732201300106" width="39.860139860139725" height="98.51267798699894"/><path fill="none" stroke="white" paint-order="fill stroke markers" d=" M 598.7762237762239 429.48732201300106 L 638.6363636363636 429.48732201300106 L 638.6363636363636 528 L 598.7762237762239 528 L 598.7762237762239 429.48732201300106 Z" stroke-linejoin="bevel" stroke-miterlimit="10"/><rect fill="#717cbb" stroke="none" x="705.06993006993" y="453.18942292599627" width="39.86013986013995" height="74.81057707400373"/><path fill="none" stroke="white" paint-order="fill stroke markers" d=" M 705.06993006993 453.18942292599627 L 744.93006993007 453.18942292599627 L 744.93006993007 528 L 705.06993006993 528 L 705.06993006993 453.18942292599627 Z" stroke-linejoin="bevel" stroke-miterlimit="10"/><rect fill="#89b9df" stroke="none" x="749.3589743589745" y="398.74281458968096" width="39.860139860139725" height="129.25718541031904"/><path fill="none" stroke="white" paint-order="fill stroke markers" d=" M 749.3589743589745 398.74281458968096 L 789.2191142191142 398.74281458968096 L 789.2191142191142 528 L 749.3589743589745 528 L 749.3589743589745 398.74281458968096 Z" stroke-linejoin="bevel" stroke-miterlimit="10"/><rect fill="#717cbb" stroke="none" x="855.6526806526806" y="388.58841172414395" width="39.86013986013995" height="139.41158827585605"/><path fill="none" stroke="white" paint-order="fill stroke markers" d=" M 855.6526806526806 388.58841172414395 L 895.5128205128206 388.58841172414395 L 895.5128205128206 528 L 855.6526806526806 528 L 855.6526806526806 388.58841172414395 Z" stroke-linejoin="bevel" stroke-miterlimit="10"/><rect fill="#89b9df" stroke="none" x="899.941724941725" y="427.43162727368485" width="39.860139860139725" height="100.56837272631515"/><path fill="none" stroke="white" paint-order="fill stroke markers" d=" M 899.941724941725 427.43162727368485 L 939.8018648018648 427.43162727368485 L 939.8018648018648 528 L 899.941724941725 528 L 899.941724941725 427.43162727368485 Z" stroke-linejoin="bevel" stroke-miterlimit="10"/><rect fill="#717cbb" stroke="none" x="1006.2354312354313" y="275.46181589805633" width="39.86013986013961" height="252.53818410194367"/><path fill="none" stroke="white" paint-order="fill stroke markers" d=" M 1006.2354312354313 275.46181589805633 L 1046.095571095571 275.46181589805633 L 1046.095571095571 528 L 1006.2354312354313 528 L 1006.2354312354313 275.46181589805633 Z" stroke-linejoin="bevel" stroke-miterlimit="10"/><rect fill="#89b9df" stroke="none" x="1050.5244755244753" y="345.572205885228" width="39.86013986013995" height="182.42779411477198"/><path fill="none" stroke="white" paint-order="fill stroke markers" d=" M 1050.5244755244753 345.572205885228 L 1090.3846153846152 345.572205885228 L 1090.3846153846152 528 L 1050.5244755244753 528 L 1050.5244755244753 345.572205885228 Z" stroke-linejoin="bevel" stroke-miterlimit="10"/><rect fill="#717cbb" stroke="none" x="1156.8181818181815" y="54.666666666666686" width="39.86013986013995" height="473.3333333333333"/><path fill="none" stroke="white" paint-order="fill stroke markers" d=" M 1156.8181818181815 54.666666666666686 L 1196.6783216783215 54.666666666666686 L 1196.6783216783215 528 L 1156.8181818181815 528 L 1156.8181818181815 54.666666666666686 Z" stroke-linejoin="bevel" stroke-miterlimit="10"/><rect fill="#89b9df" stroke="none" x="1201.1072261072259" y="192.57497291129016" width="39.86013986013995" height="335.42502708870984"/><path fill="none" stroke="white" paint-order="fill stroke markers" d=" M 1201.1072261072259 192.57497291129016 L 1240.9673659673658 192.57497291129016 L 1240.9673659673658 528 L 1201.1072261072259 528 L 1201.1072261072259 192.57497291129016 Z" stroke-linejoin="bevel" stroke-miterlimit="10"/></g></g></g><g clip-path="url(#yQgtxMzHGQfS)"><g/></g><g><g fill="#444444" stroke="lightgrey" stroke-linejoin="bevel" stroke-miterlimit="10" stroke-width="2"><path fill="none" stroke="black" paint-order="fill stroke markers" d=" M 155 528 L 1295 528" stroke-linejoin="bevel" stroke-miterlimit="10"/><path fill="none" stroke="black" paint-order="fill stroke markers" d=" M 229 534 L 229 526" stroke-linejoin="bevel" stroke-miterlimit="10"/><path fill="none" stroke="black" paint-order="fill stroke markers" d=" M 273 534 L 273 526" stroke-linejoin="bevel" stroke-miterlimit="10"/><path fill="none" stroke="black" paint-order="fill stroke markers" d=" M 318 534 L 318 526" stroke-linejoin="bevel" stroke-miterlimit="10"/><path fill="none" stroke="black" paint-order="fill stroke markers" d=" M 424 534 L 424 526" stroke-linejoin="bevel" stroke-miterlimit="10"/><path fill="none" stroke="black" paint-order="fill stroke markers" d=" M 468 534 L 468 526" stroke-linejoin="bevel" stroke-miterlimit="10"/><path fill="none" stroke="black" paint-order="fill stroke markers" d=" M 574 534 L 574 526" stroke-linejoin="bevel" stroke-miterlimit="10"/><path fill="none" stroke="black" paint-order="fill stroke markers" d=" M 619 534 L 619 526" stroke-linejoin="bevel" stroke-miterlimit="10"/><path fill="none" stroke="black" paint-order="fill stroke markers" d=" M 725 534 L 725 526" stroke-linejoin="bevel" stroke-miterlimit="10"/><path fill="none" stroke="black" paint-order="fill stroke markers" d=" M 769 534 L 769 526" stroke-linejoin="bevel" stroke-miterlimit="10"/><path fill="none" stroke="black" paint-order="fill stroke markers" d=" M 876 534 L 876 526" stroke-linejoin="bevel" stroke-miterlimit="10"/><path fill="none" stroke="black" paint-order="fill stroke markers" d=" M 920 534 L 920 526" stroke-linejoin="bevel" stroke-miterlimit="10"/><path fill="none" stroke="black" paint-order="fill stroke markers" d=" M 1026 534 L 1026 526" stroke-linejoin="bevel" stroke-miterlimit="10"/><path fill="none" stroke="black" paint-order="fill stroke markers" d=" M 1070 534 L 1070 526" stroke-linejoin="bevel" stroke-miterlimit="10"/><path fill="none" stroke="black" paint-order="fill stroke markers" d=" M 1177 534 L 1177 526" stroke-linejoin="bevel" stroke-miterlimit="10"/><path fill="" stroke="" paint-order="fill stroke markers" d=" M 1221 534 L 1221 526" stroke-linejoin="bevel" stroke-miterlimit="10"/><g transform="translate(229,539) rotate(-74.48451336700703,0,0)"><text fill="" stroke="none" font-family="helvetica" font-size="15px" font-style="normal" font-weight="normal" text-decoration="normal" x="0" y="0" text-anchor="end" dominant-baseline="central">Single GPU</text><g transform="rotate(74.48451336700703,0,0) translate(-229,-539) translate(273,539) rotate(-74.48451336700703,0,0)"><text fill="" stroke="none" font-family="helvetica" font-size="15px" font-style="normal" font-weight="normal" text-decoration="normal" x="0" y="0" text-anchor="end" dominant-baseline="central">IntelMPI</text><g transform="rotate(74.48451336700703,0,0) translate(-273,-539) translate(318,539) rotate(-74.48451336700703,0,0)"><text fill="" stroke="none" font-family="helvetica" font-size="15px" font-style="normal" font-weight="normal" text-decoration="normal" x="0" y="0" text-anchor="end" dominant-baseline="central">OpenMPI+NCCL</text><g transform="rotate(74.48451336700703,0,0) translate(-318,-539) translate(424,539) rotate(-74.48451336700703,0,0)"><text fill="" stroke="none" font-family="helvetica" font-size="15px" font-style="normal" font-weight="normal" text-decoration="normal" x="0" y="0" text-anchor="end" dominant-baseline="central">IntelMPI</text><g transform="rotate(74.48451336700703,0,0) translate(-424,-539) translate(468,539) rotate(-74.48451336700703,0,0)"><text fill="" stroke="none" font-family="helvetica" font-size="15px" font-style="normal" font-weight="normal" text-decoration="normal" x="0" y="0" text-anchor="end" dominant-baseline="central">OpenMPI+NCCL</text><g transform="rotate(74.48451336700703,0,0) translate(-468,-539) translate(574,539) rotate(-74.48451336700703,0,0)"><text fill="" stroke="none" font-family="helvetica" font-size="15px" font-style="normal" font-weight="normal" text-decoration="normal" x="0" y="0" text-anchor="end" dominant-baseline="central">IntelMPI</text><g transform="rotate(74.48451336700703,0,0) translate(-574,-539) translate(619,539) rotate(-74.48451336700703,0,0)"><text fill="" stroke="none" font-family="helvetica" font-size="15px" font-style="normal" font-weight="normal" text-decoration="normal" x="0" y="0" text-anchor="end" dominant-baseline="central">OpenMPI+NCCL</text><g transform="rotate(74.48451336700703,0,0) translate(-619,-539) translate(725,539) rotate(-74.48451336700703,0,0)"><text fill="" stroke="none" font-family="helvetica" font-size="15px" font-style="normal" font-weight="normal" text-decoration="normal" x="0" y="0" text-anchor="end" dominant-baseline="central">IntelMPI</text><g transform="rotate(74.48451336700703,0,0) translate(-725,-539) translate(769,539) rotate(-74.48451336700703,0,0)"><text fill="" stroke="none" font-family="helvetica" font-size="15px" font-style="normal" font-weight="normal" text-decoration="normal" x="0" y="0" text-anchor="end" dominant-baseline="central">OpenMPI+NCCL</text><g transform="rotate(74.48451336700703,0,0) translate(-769,-539) translate(876,539) rotate(-74.48451336700703,0,0)"><text fill="" stroke="none" font-family="helvetica" font-size="15px" font-style="normal" font-weight="normal" text-decoration="normal" x="0" y="0" text-anchor="end" dominant-baseline="central">IntelMPI</text><g transform="rotate(74.48451336700703,0,0) translate(-876,-539) translate(920,539) rotate(-74.48451336700703,0,0)"><text fill="" stroke="none" font-family="helvetica" font-size="15px" font-style="normal" font-weight="normal" text-decoration="normal" x="0" y="0" text-anchor="end" dominant-baseline="central">OpenMPI+NCCL</text><g transform="rotate(74.48451336700703,0,0) translate(-920,-539) translate(1026,539) rotate(-74.48451336700703,0,0)"><text fill="" stroke="none" font-family="helvetica" font-size="15px" font-style="normal" font-weight="normal" text-decoration="normal" x="0" y="0" text-anchor="end" dominant-baseline="central">IntelMPI</text><g transform="rotate(74.48451336700703,0,0) translate(-1026,-539) translate(1070,539) rotate(-74.48451336700703,0,0)"><text fill="" stroke="none" font-family="helvetica" font-size="15px" font-style="normal" font-weight="normal" text-decoration="normal" x="0" y="0" text-anchor="end" dominant-baseline="central">OpenMPI+NCCL</text><g transform="rotate(74.48451336700703,0,0) translate(-1070,-539) translate(1177,539) rotate(-74.48451336700703,0,0)"><text fill="" stroke="none" font-family="helvetica" font-size="15px" font-style="normal" font-weight="normal" text-decoration="normal" x="0" y="0" text-anchor="end" dominant-baseline="central">IntelMPI</text><g transform="rotate(74.48451336700703,0,0) translate(-1177,-539) translate(1221,539) rotate(-74.48451336700703,0,0)"><text fill="" stroke="none" font-family="helvetica" font-size="15px" font-style="normal" font-weight="normal" text-decoration="normal" x="0" y="0" text-anchor="end" dominant-baseline="central">OpenMPI+NCCL</text><g transform="rotate(74.48451336700703,0,0) translate(-1221,-539) translate(273,738) rotate(0,0,0)"><text fill="" stroke="none" font-family="helvetica" font-size="20px" font-style="normal" font-weight="bold" text-decoration="normal" x="0" y="0" text-anchor="middle" dominant-baseline="hanging">1</text><g transform="rotate(0,0,0) translate(-273,-738) translate(446,738) rotate(0,0,0)"><text fill="" stroke="none" font-family="helvetica" font-size="20px" font-style="normal" font-weight="bold" text-decoration="normal" x="0" y="0" text-anchor="middle" dominant-baseline="hanging">2</text><g transform="rotate(0,0,0) translate(-446,-738) translate(597,738) rotate(0,0,0)"><text fill="" stroke="none" font-family="helvetica" font-size="20px" font-style="normal" font-weight="bold" text-decoration="normal" x="0" y="0" text-anchor="middle" dominant-baseline="hanging">3</text><g transform="rotate(0,0,0) translate(-597,-738) translate(747,738) rotate(0,0,0)"><text fill="" stroke="none" font-family="helvetica" font-size="20px" font-style="normal" font-weight="bold" text-decoration="normal" x="0" y="0" text-anchor="middle" dominant-baseline="hanging">4</text><g transform="rotate(0,0,0) translate(-747,-738) translate(898,738) rotate(0,0,0)"><text fill="" stroke="none" font-family="helvetica" font-size="20px" font-style="normal" font-weight="bold" text-decoration="normal" x="0" y="0" text-anchor="middle" dominant-baseline="hanging">8</text><g transform="rotate(0,0,0) translate(-898,-738) translate(1048,738) rotate(0,0,0)"><text fill="" stroke="none" font-family="helvetica" font-size="20px" font-style="normal" font-weight="bold" text-decoration="normal" x="0" y="0" text-anchor="middle" dominant-baseline="hanging">16</text><g transform="rotate(0,0,0) translate(-1048,-738) translate(1199,738) rotate(0,0,0)"><text fill="" stroke="none" font-family="helvetica" font-size="20px" font-style="normal" font-weight="bold" text-decoration="normal" x="0" y="0" text-anchor="middle" dominant-baseline="hanging">32</text><g transform="rotate(0,0,0) translate(-1199,-738) translate(725,771) rotate(0,0,0)"><text fill="" stroke="none" font-family="helvetica" font-size="20px" font-style="italic" font-weight="normal" text-decoration="normal" x="0" y="0" text-anchor="middle" dominant-baseline="hanging">Number of GPUs</text><g transform="rotate(0,0,0) translate(-725,-771)"><path fill="none" stroke="" paint-order="fill stroke markers" d=" M 371 754 L 371 531"/><path fill="none" stroke="" paint-order="fill stroke markers" d=" M 521 754 L 521 531"/><path fill="none" stroke="" paint-order="fill stroke markers" d=" M 672 754 L 672 531"/><path fill="none" stroke="" paint-order="fill stroke markers" d=" M 822 754 L 822 531"/><path fill="none" stroke="" paint-order="fill stroke markers" d=" M 973 754 L 973 531"/><path fill="none" stroke="" paint-order="fill stroke markers" d=" M 1124 754 L 1124 531"/></g></g></g></g></g></g></g></g></g></g></g></g></g></g></g></g></g></g></g></g></g></g></g></g></g><g fill="#444444"><path fill="none" stroke="black" paint-order="fill stroke markers" d=" M 155 528 L 155 31" stroke-linejoin="bevel" stroke-miterlimit="10"/><path fill="none" stroke="black" paint-order="fill stroke markers" d=" M 149 528 L 157 528" stroke-linejoin="bevel" stroke-miterlimit="10"/><path fill="none" stroke="black" paint-order="fill stroke markers" d=" M 149 443 L 157 443" stroke-linejoin="bevel" stroke-miterlimit="10"/><path fill="none" stroke="black" paint-order="fill stroke markers" d=" M 149 358 L 157 358" stroke-linejoin="bevel" stroke-miterlimit="10"/><path fill="none" stroke="black" paint-order="fill stroke markers" d=" M 149 274 L 157 274" stroke-linejoin="bevel" stroke-miterlimit="10"/><path fill="none" stroke="black" paint-order="fill stroke markers" d=" M 149 189 L 157 189" stroke-linejoin="bevel" stroke-miterlimit="10"/><path fill="none" stroke="black" paint-order="fill stroke markers" d=" M 149 104 L 157 104" stroke-linejoin="bevel" stroke-miterlimit="10"/><path fill="none" stroke="black" paint-order="fill stroke markers" d=" M 151 528 L 155 528" stroke-linejoin="bevel" stroke-miterlimit="10"/><path fill="none" stroke="black" paint-order="fill stroke markers" d=" M 151 511 L 155 511" stroke-linejoin="bevel" stroke-miterlimit="10"/><path fill="none" stroke="black" paint-order="fill stroke markers" d=" M 151 494 L 155 494" stroke-linejoin="bevel" stroke-miterlimit="10"/><path fill="none" stroke="black" paint-order="fill stroke markers" d=" M 151 477 L 155 477" stroke-linejoin="bevel" stroke-miterlimit="10"/><path fill="none" stroke="black" paint-order="fill stroke markers" d=" M 151 460 L 155 460" stroke-linejoin="bevel" stroke-miterlimit="10"/><path fill="none" stroke="black" paint-order="fill stroke markers" d=" M 151 443 L 155 443" stroke-linejoin="bevel" stroke-miterlimit="10"/><path fill="none" stroke="black" paint-order="fill stroke markers" d=" M 151 426 L 155 426" stroke-linejoin="bevel" stroke-miterlimit="10"/><path fill="none" stroke="black" paint-order="fill stroke markers" d=" M 151 409 L 155 409" stroke-linejoin="bevel" stroke-miterlimit="10"/><path fill="none" stroke="black" paint-order="fill stroke markers" d=" M 151 392 L 155 392" stroke-linejoin="bevel" stroke-miterlimit="10"/><path fill="none" stroke="black" paint-order="fill stroke markers" d=" M 151 375 L 155 375" stroke-linejoin="bevel" stroke-miterlimit="10"/><path fill="none" stroke="black" paint-order="fill stroke markers" d=" M 151 358 L 155 358" stroke-linejoin="bevel" stroke-miterlimit="10"/><path fill="none" stroke="black" paint-order="fill stroke markers" d=" M 151 341 L 155 341" stroke-linejoin="bevel" stroke-miterlimit="10"/><path fill="none" stroke="black" paint-order="fill stroke markers" d=" M 151 324 L 155 324" stroke-linejoin="bevel" stroke-miterlimit="10"/><path fill="none" stroke="black" paint-order="fill stroke markers" d=" M 151 308 L 155 308" stroke-linejoin="bevel" stroke-miterlimit="10"/><path fill="none" stroke="black" paint-order="fill stroke markers" d=" M 151 291 L 155 291" stroke-linejoin="bevel" stroke-miterlimit="10"/><path fill="none" stroke="black" paint-order="fill stroke markers" d=" M 151 274 L 155 274" stroke-linejoin="bevel" stroke-miterlimit="10"/><path fill="none" stroke="black" paint-order="fill stroke markers" d=" M 151 257 L 155 257" stroke-linejoin="bevel" stroke-miterlimit="10"/><path fill="none" stroke="black" paint-order="fill stroke markers" d=" M 151 240 L 155 240" stroke-linejoin="bevel" stroke-miterlimit="10"/><path fill="none" stroke="black" paint-order="fill stroke markers" d=" M 151 223 L 155 223" stroke-linejoin="bevel" stroke-miterlimit="10"/><path fill="none" stroke="black" paint-order="fill stroke markers" d=" M 151 206 L 155 206" stroke-linejoin="bevel" stroke-miterlimit="10"/><path fill="none" stroke="black" paint-order="fill stroke markers" d=" M 151 189 L 155 189" stroke-linejoin="bevel" stroke-miterlimit="10"/><path fill="none" stroke="black" paint-order="fill stroke markers" d=" M 151 172 L 155 172" stroke-linejoin="bevel" stroke-miterlimit="10"/><path fill="none" stroke="black" paint-order="fill stroke markers" d=" M 151 155 L 155 155" stroke-linejoin="bevel" stroke-miterlimit="10"/><path fill="none" stroke="black" paint-order="fill stroke markers" d=" M 151 138 L 155 138" stroke-linejoin="bevel" stroke-miterlimit="10"/><path fill="none" stroke="black" paint-order="fill stroke markers" d=" M 151 121 L 155 121" stroke-linejoin="bevel" stroke-miterlimit="10"/><path fill="none" stroke="black" paint-order="fill stroke markers" d=" M 151 104 L 155 104" stroke-linejoin="bevel" stroke-miterlimit="10"/><path fill="none" stroke="black" paint-order="fill stroke markers" d=" M 151 87 L 155 87" stroke-linejoin="bevel" stroke-miterlimit="10"/><path fill="none" stroke="black" paint-order="fill stroke markers" d=" M 151 70 L 155 70" stroke-linejoin="bevel" stroke-miterlimit="10"/><path fill="none" stroke="black" paint-order="fill stroke markers" d=" M 151 53 L 155 53" stroke-linejoin="bevel" stroke-miterlimit="10"/><path fill="" stroke="black" paint-order="fill stroke markers" d=" M 151 36 L 155 36" stroke-linejoin="bevel" stroke-miterlimit="10"/><g transform="translate(144,528) rotate(0,0,0)"><text fill="" stroke="none" font-family="helvetica" font-size="20px" font-style="normal" font-weight="normal" text-decoration="normal" x="0" y="0" text-anchor="end" dominant-baseline="central">0</text><g transform="rotate(0,0,0) translate(-144,-528) translate(144,443) rotate(0,0,0)"><text fill="" stroke="none" font-family="helvetica" font-size="20px" font-style="normal" font-weight="normal" text-decoration="normal" x="0" y="0" text-anchor="end" dominant-baseline="central">5000</text><g transform="rotate(0,0,0) translate(-144,-443) translate(144,358) rotate(0,0,0)"><text fill="" stroke="none" font-family="helvetica" font-size="20px" font-style="normal" font-weight="normal" text-decoration="normal" x="0" y="0" text-anchor="end" dominant-baseline="central">10000</text><g transform="rotate(0,0,0) translate(-144,-358) translate(144,274) rotate(0,0,0)"><text fill="" stroke="none" font-family="helvetica" font-size="20px" font-style="normal" font-weight="normal" text-decoration="normal" x="0" y="0" text-anchor="end" dominant-baseline="central">15000</text><g transform="rotate(0,0,0) translate(-144,-274) translate(144,189) rotate(0,0,0)"><text fill="" stroke="none" font-family="helvetica" font-size="20px" font-style="normal" font-weight="normal" text-decoration="normal" x="0" y="0" text-anchor="end" dominant-baseline="central">20000</text><g transform="rotate(0,0,0) translate(-144,-189) translate(144,104) rotate(0,0,0)"><text fill="" stroke="none" font-family="helvetica" font-size="20px" font-style="normal" font-weight="normal" text-decoration="normal" x="0" y="0" text-anchor="end" dominant-baseline="central">25000</text><g transform="rotate(0,0,0) translate(-144,-104) translate(29,280) rotate(-90,0,0)"><text fill="" stroke="none" font-family="helvetica" font-size="20px" font-style="italic" font-weight="normal" text-decoration="normal" x="0" y="0" text-anchor="middle" dominant-baseline="alphabetic">Images/Second</text><g transform="rotate(90,0,0) translate(-29,-280)"/></g></g></g></g></g></g></g></g><g/><g><path fill="#ffffff" stroke="#e5e5e5" paint-order="fill stroke markers" d=" M 1295 36 L 1580 36 L 1580 128 L 1295 128 L 1295 36 Z" fill-opacity="0.95" stroke-linejoin="bevel" stroke-miterlimit="10" stroke-opacity="0.5"/><text fill="#444444" stroke="none" font-family="helvetica" font-size="20px" font-style="normal" font-weight="normal" text-decoration="normal" x="1330" y="57" text-anchor="start" dominant-baseline="central">Single GPU</text><rect fill="#8a4b9a" stroke="none" x="1307" y="48" width="16" height="16"/><path fill="none" stroke="white" paint-order="fill stroke markers" d=" M 1307 48 L 1323 48 L 1323 64 L 1307 64 L 1307 48 Z" stroke-linejoin="bevel" stroke-miterlimit="10"/><text fill="#444444" stroke="none" font-family="helvetica" font-size="20px" font-style="normal" font-weight="normal" text-decoration="normal" x="1330" y="82" text-anchor="start" dominant-baseline="central">IntelMPI</text><rect fill="#717cbb" stroke="none" x="1307" y="73" width="16" height="16"/><path fill="none" stroke="white" paint-order="fill stroke markers" d=" M 1307 73 L 1323 73 L 1323 89 L 1307 89 L 1307 73 Z" stroke-linejoin="bevel" stroke-miterlimit="10"/><text fill="#444444" stroke="none" font-family="helvetica" font-size="20px" font-style="normal" font-weight="normal" text-decoration="normal" x="1330" y="107" text-anchor="start" dominant-baseline="central">OpenMPI+NCCL</text><rect fill="#89b9df" stroke="none" x="1307" y="98" width="16" height="16"/><path fill="none" stroke="white" paint-order="fill stroke markers" d=" M 1307 98 L 1323 98 L 1323 114 L 1307 114 L 1307 98 Z" stroke-linejoin="bevel" stroke-miterlimit="10"/></g><g fill="#444444"><path fill="" stroke="none" d=""/><g transform="translate(155,26)"><path fill="none" stroke="none"/><text fill="" stroke="none" font-family="helvetica" font-size="10pt" font-style="normal" font-weight="bold" text-decoration="normal" x="0" y="0" text-anchor="start" dominant-baseline="text-after-edge">Training throughput for ResNet50 with synthetic data (p100)</text></g></g></g></g></g></svg>