<svg version="1.1" xmlns="http://www.w3.org/2000/svg" xmlns:xlink="http://www.w3.org/1999/xlink" width="1600" height="800" style="width: 1600px; height: 800px;"><defs><clipPath id="prfRgFVWwgQz"><path fill="none" stroke="none" d=" M 111 31 L 1295 31 L 1295 528 L 111 528 L 111 31 Z"/></clipPath><clipPath id="eTGHDxVsMdOo"><path fill="none" stroke="none" d=" M 111 31 L 1295 31 L 1295 528 L 111 528 L 111 31 Z"/></clipPath></defs><g><g/><g/><g/><g transform="scale(1,1) translate(0.5,0.5)"><rect fill="#FFFFFF" stroke="none" x="0" y="0" width="1600" height="800"/><rect fill="#ffffff" stroke="none" x="0" y="0" width="1600" height="800"/><rect fill="#FFFFFF" stroke="none" x="111" y="31" width="1184" height="497"/><rect fill="#ffffff" stroke="none" x="111" y="31" width="1184" height="497"/><g><rect fill="none" stroke="#e5e5e5" x="111" y="31" width="1184" height="497" stroke-linejoin="bevel" stroke-miterlimit="10"/></g><g clip-path="url(#prfRgFVWwgQz)"><g><g/><g><path fill="none" stroke="#e5e5e5" paint-order="fill stroke markers" d=" M 111 425 L 1295 425" stroke-linejoin="bevel" stroke-miterlimit="10"/><path fill="none" stroke="#e5e5e5" paint-order="fill stroke markers" d=" M 111 323 L 1295 323" stroke-linejoin="bevel" stroke-miterlimit="10"/><path fill="none" stroke="#e5e5e5" paint-order="fill stroke markers" d=" M 111 220 L 1295 220" stroke-linejoin="bevel" stroke-miterlimit="10"/><path fill="none" stroke="#e5e5e5" paint-order="fill stroke markers" d=" M 111 117 L 1295 117" stroke-linejoin="bevel" stroke-miterlimit="10"/></g><g><path fill="none" stroke="none"/><rect fill="#8a4b9a" stroke="none" x="167.1181041181041" y="512.475249422562" width="41.39860139860144" height="15.524750577437999"/><path fill="none" stroke="white" paint-order="fill stroke markers" d=" M 167.1181041181041 512.475249422562 L 208.51670551670554 512.475249422562 L 208.51670551670554 528 L 167.1181041181041 528 L 167.1181041181041 512.475249422562 Z" stroke-linejoin="bevel" stroke-miterlimit="10"/><rect fill="#717cbb" stroke="none" x="213.11655011655012" y="512.4547072451522" width="41.398601398601386" height="15.545292754847765"/><path fill="none" stroke="white" paint-order="fill stroke markers" d=" M 213.11655011655012 512.4547072451522 L 254.5151515151515 512.4547072451522 L 254.5151515151515 528 L 213.11655011655012 528 L 213.11655011655012 512.4547072451522 Z" stroke-linejoin="bevel" stroke-miterlimit="10"/><rect fill="#89b9df" stroke="none" x="259.1149961149961" y="512.5111982330292" width="41.398601398601386" height="15.488801766970823"/><path fill="none" stroke="white" paint-order="fill stroke markers" d=" M 259.1149961149961 512.5111982330292 L 300.51359751359746 512.5111982330292 L 300.51359751359746 528 L 259.1149961149961 528 L 259.1149961149961 512.5111982330292 Z" stroke-linejoin="bevel" stroke-miterlimit="10"/><rect fill="#717cbb" stroke="none" x="369.5112665112665" y="497.7465082197529" width="41.398601398601386" height="30.25349178024709"/><path fill="none" stroke="white" paint-order="fill stroke markers" d=" M 369.5112665112665 497.7465082197529 L 410.9098679098679 497.7465082197529 L 410.9098679098679 528 L 369.5112665112665 528 L 369.5112665112665 497.7465082197529 Z" stroke-linejoin="bevel" stroke-miterlimit="10"/><rect fill="#89b9df" stroke="none" x="415.5097125097125" y="498.20870721147287" width="41.3986013986015" height="29.79129278852713"/><path fill="none" stroke="white" paint-order="fill stroke markers" d=" M 415.5097125097125 498.20870721147287 L 456.90831390831397 498.20870721147287 L 456.90831390831397 528 L 415.5097125097125 528 L 415.5097125097125 498.20870721147287 Z" stroke-linejoin="bevel" stroke-miterlimit="10"/><rect fill="#717cbb" stroke="none" x="525.9059829059829" y="481.33330846934217" width="41.398601398601386" height="46.66669153065783"/><path fill="none" stroke="white" paint-order="fill stroke markers" d=" M 525.9059829059829 481.33330846934217 L 567.3045843045843 481.33330846934217 L 567.3045843045843 528 L 525.9059829059829 528 L 525.9059829059829 481.33330846934217 Z" stroke-linejoin="bevel" stroke-miterlimit="10"/><rect fill="#89b9df" stroke="none" x="571.9044289044289" y="493.53022630639646" width="41.398601398601386" height="34.46977369360354"/><path fill="none" stroke="white" paint-order="fill stroke markers" d=" M 571.9044289044289 493.53022630639646 L 613.3030303030303 493.53022630639646 L 613.3030303030303 528 L 571.9044289044289 528 L 571.9044289044289 493.53022630639646 Z" stroke-linejoin="bevel" stroke-miterlimit="10"/><rect fill="#717cbb" stroke="none" x="682.3006993006993" y="467.71384484666095" width="41.398601398601386" height="60.28615515333905"/><path fill="none" stroke="white" paint-order="fill stroke markers" d=" M 682.3006993006993 467.71384484666095 L 723.6993006993007 467.71384484666095 L 723.6993006993007 528 L 682.3006993006993 528 L 682.3006993006993 467.71384484666095 Z" stroke-linejoin="bevel" stroke-miterlimit="10"/><rect fill="#89b9df" stroke="none" x="728.2991452991453" y="473.71344453640353" width="41.398601398601386" height="54.28655546359647"/><path fill="none" stroke="white" paint-order="fill stroke markers" d=" M 728.2991452991453 473.71344453640353 L 769.6977466977467 473.71344453640353 L 769.6977466977467 528 L 728.2991452991453 528 L 728.2991452991453 473.71344453640353 Z" stroke-linejoin="bevel" stroke-miterlimit="10"/><rect fill="#717cbb" stroke="none" x="838.6954156954157" y="407.0624241012543" width="41.398601398601386" height="120.9375758987457"/><path fill="none" stroke="white" paint-order="fill stroke markers" d=" M 838.6954156954157 407.0624241012543 L 880.0940170940171 407.0624241012543 L 880.0940170940171 528 L 838.6954156954157 528 L 838.6954156954157 407.0624241012543 Z" stroke-linejoin="bevel" stroke-miterlimit="10"/><rect fill="#89b9df" stroke="none" x="884.6938616938617" y="464.2037002817655" width="41.398601398601386" height="63.79629971823448"/><path fill="none" stroke="white" paint-order="fill stroke markers" d=" M 884.6938616938617 464.2037002817655 L 926.092463092463 464.2037002817655 L 926.092463092463 528 L 884.6938616938617 528 L 884.6938616938617 464.2037002817655 Z" stroke-linejoin="bevel" stroke-miterlimit="10"/><rect fill="#717cbb" stroke="none" x="995.0901320901321" y="289.5332447949212" width="41.398601398601386" height="238.4667552050788"/><path fill="none" stroke="white" paint-order="fill stroke markers" d=" M 995.0901320901321 289.5332447949212 L 1036.4887334887335 289.5332447949212 L 1036.4887334887335 528 L 995.0901320901321 528 L 995.0901320901321 289.5332447949212 Z" stroke-linejoin="bevel" stroke-miterlimit="10"/><rect fill="#89b9df" stroke="none" x="1041.088578088578" y="328.9639543329856" width="41.398601398601386" height="199.03604566701438"/><path fill="none" stroke="white" paint-order="fill stroke markers" d=" M 1041.088578088578 328.9639543329856 L 1082.4871794871794 328.9639543329856 L 1082.4871794871794 528 L 1041.088578088578 528 L 1041.088578088578 328.9639543329856 Z" stroke-linejoin="bevel" stroke-miterlimit="10"/><rect fill="#717cbb" stroke="none" x="1151.4848484848483" y="54.666666666666686" width="41.398601398601386" height="473.3333333333333"/><path fill="none" stroke="white" paint-order="fill stroke markers" d=" M 1151.4848484848483 54.666666666666686 L 1192.8834498834497 54.666666666666686 L 1192.8834498834497 528 L 1151.4848484848483 528 L 1151.4848484848483 54.666666666666686 Z" stroke-linejoin="bevel" stroke-miterlimit="10"/><rect fill="#89b9df" stroke="none" x="1197.4832944832942" y="353.8268898865377" width="41.398601398601386" height="174.17311011346231"/><path fill="none" stroke="white" paint-order="fill stroke markers" d=" M 1197.4832944832942 353.8268898865377 L 1238.8818958818956 353.8268898865377 L 1238.8818958818956 528 L 1197.4832944832942 528 L 1197.4832944832942 353.8268898865377 Z" stroke-linejoin="bevel" stroke-miterlimit="10"/></g></g></g><g clip-path="url(#eTGHDxVsMdOo)"><g/></g><g><g fill="#444444" stroke="lightgrey" stroke-linejoin="bevel" stroke-miterlimit="10" stroke-width="2"><path fill="none" stroke="black" paint-order="fill stroke markers" d=" M 111 528 L 1295 528" stroke-linejoin="bevel" stroke-miterlimit="10"/><path fill="none" stroke="black" paint-order="fill stroke markers" d=" M 188 534 L 188 526" stroke-linejoin="bevel" stroke-miterlimit="10"/><path fill="none" stroke="black" paint-order="fill stroke markers" d=" M 234 534 L 234 526" stroke-linejoin="bevel" stroke-miterlimit="10"/><path fill="none" stroke="black" paint-order="fill stroke markers" d=" M 280 534 L 280 526" stroke-linejoin="bevel" stroke-miterlimit="10"/><path fill="none" stroke="black" paint-order="fill stroke markers" d=" M 390 534 L 390 526" stroke-linejoin="bevel" stroke-miterlimit="10"/><path fill="none" stroke="black" paint-order="fill stroke markers" d=" M 436 534 L 436 526" stroke-linejoin="bevel" stroke-miterlimit="10"/><path fill="none" stroke="black" paint-order="fill stroke markers" d=" M 547 534 L 547 526" stroke-linejoin="bevel" stroke-miterlimit="10"/><path fill="none" stroke="black" paint-order="fill stroke markers" d=" M 593 534 L 593 526" stroke-linejoin="bevel" stroke-miterlimit="10"/><path fill="none" stroke="black" paint-order="fill stroke markers" d=" M 703 534 L 703 526" stroke-linejoin="bevel" stroke-miterlimit="10"/><path fill="none" stroke="black" paint-order="fill stroke markers" d=" M 749 534 L 749 526" stroke-linejoin="bevel" stroke-miterlimit="10"/><path fill="none" stroke="black" paint-order="fill stroke markers" d=" M 859 534 L 859 526" stroke-linejoin="bevel" stroke-miterlimit="10"/><path fill="none" stroke="black" paint-order="fill stroke markers" d=" M 905 534 L 905 526" stroke-linejoin="bevel" stroke-miterlimit="10"/><path fill="none" stroke="black" paint-order="fill stroke markers" d=" M 1016 534 L 1016 526" stroke-linejoin="bevel" stroke-miterlimit="10"/><path fill="none" stroke="black" paint-order="fill stroke markers" d=" M 1062 534 L 1062 526" stroke-linejoin="bevel" stroke-miterlimit="10"/><path fill="none" stroke="black" paint-order="fill stroke markers" d=" M 1172 534 L 1172 526" stroke-linejoin="bevel" stroke-miterlimit="10"/><path fill="" stroke="" paint-order="fill stroke markers" d=" M 1218 534 L 1218 526" stroke-linejoin="bevel" stroke-miterlimit="10"/><g transform="translate(188,539) rotate(-74.48451336700703,0,0)"><text fill="" stroke="none" font-family="helvetica" font-size="15px" font-style="normal" font-weight="normal" text-decoration="normal" x="0" y="0" text-anchor="end" dominant-baseline="central">Single GPU</text><g transform="rotate(74.48451336700703,0,0) translate(-188,-539) translate(234,539) rotate(-74.48451336700703,0,0)"><text fill="" stroke="none" font-family="helvetica" font-size="15px" font-style="normal" font-weight="normal" text-decoration="normal" x="0" y="0" text-anchor="end" dominant-baseline="central">IntelMPI</text><g transform="rotate(74.48451336700703,0,0) translate(-234,-539) translate(280,539) rotate(-74.48451336700703,0,0)"><text fill="" stroke="none" font-family="helvetica" font-size="15px" font-style="normal" font-weight="normal" text-decoration="normal" x="0" y="0" text-anchor="end" dominant-baseline="central">OpenMPI+NCCL</text><g transform="rotate(74.48451336700703,0,0) translate(-280,-539) translate(390,539) rotate(-74.48451336700703,0,0)"><text fill="" stroke="none" font-family="helvetica" font-size="15px" font-style="normal" font-weight="normal" text-decoration="normal" x="0" y="0" text-anchor="end" dominant-baseline="central">IntelMPI</text><g transform="rotate(74.48451336700703,0,0) translate(-390,-539) translate(436,539) rotate(-74.48451336700703,0,0)"><text fill="" stroke="none" font-family="helvetica" font-size="15px" font-style="normal" font-weight="normal" text-decoration="normal" x="0" y="0" text-anchor="end" dominant-baseline="central">OpenMPI+NCCL</text><g transform="rotate(74.48451336700703,0,0) translate(-436,-539) translate(547,539) rotate(-74.48451336700703,0,0)"><text fill="" stroke="none" font-family="helvetica" font-size="15px" font-style="normal" font-weight="normal" text-decoration="normal" x="0" y="0" text-anchor="end" dominant-baseline="central">IntelMPI</text><g transform="rotate(74.48451336700703,0,0) translate(-547,-539) translate(593,539) rotate(-74.48451336700703,0,0)"><text fill="" stroke="none" font-family="helvetica" font-size="15px" font-style="normal" font-weight="normal" text-decoration="normal" x="0" y="0" text-anchor="end" dominant-baseline="central">OpenMPI+NCCL</text><g transform="rotate(74.48451336700703,0,0) translate(-593,-539) translate(703,539) rotate(-74.48451336700703,0,0)"><text fill="" stroke="none" font-family="helvetica" font-size="15px" font-style="normal" font-weight="normal" text-decoration="normal" x="0" y="0" text-anchor="end" dominant-baseline="central">IntelMPI</text><g transform="rotate(74.48451336700703,0,0) translate(-703,-539) translate(749,539) rotate(-74.48451336700703,0,0)"><text fill="" stroke="none" font-family="helvetica" font-size="15px" font-style="normal" font-weight="normal" text-decoration="normal" x="0" y="0" text-anchor="end" dominant-baseline="central">OpenMPI+NCCL</text><g transform="rotate(74.48451336700703,0,0) translate(-749,-539) translate(859,539) rotate(-74.48451336700703,0,0)"><text fill="" stroke="none" font-family="helvetica" font-size="15px" font-style="normal" font-weight="normal" text-decoration="normal" x="0" y="0" text-anchor="end" dominant-baseline="central">IntelMPI</text><g transform="rotate(74.48451336700703,0,0) translate(-859,-539) translate(905,539) rotate(-74.48451336700703,0,0)"><text fill="" stroke="none" font-family="helvetica" font-size="15px" font-style="normal" font-weight="normal" text-decoration="normal" x="0" y="0" text-anchor="end" dominant-baseline="central">OpenMPI+NCCL</text><g transform="rotate(74.48451336700703,0,0) translate(-905,-539) translate(1016,539) rotate(-74.48451336700703,0,0)"><text fill="" stroke="none" font-family="helvetica" font-size="15px" font-style="normal" font-weight="normal" text-decoration="normal" x="0" y="0" text-anchor="end" dominant-baseline="central">IntelMPI</text><g transform="rotate(74.48451336700703,0,0) translate(-1016,-539) translate(1062,539) rotate(-74.48451336700703,0,0)"><text fill="" stroke="none" font-family="helvetica" font-size="15px" font-style="normal" font-weight="normal" text-decoration="normal" x="0" y="0" text-anchor="end" dominant-baseline="central">OpenMPI+NCCL</text><g transform="rotate(74.48451336700703,0,0) translate(-1062,-539) translate(1172,539) rotate(-74.48451336700703,0,0)"><text fill="" stroke="none" font-family="helvetica" font-size="15px" font-style="normal" font-weight="normal" text-decoration="normal" x="0" y="0" text-anchor="end" dominant-baseline="central">IntelMPI</text><g transform="rotate(74.48451336700703,0,0) translate(-1172,-539) translate(1218,539) rotate(-74.48451336700703,0,0)"><text fill="" stroke="none" font-family="helvetica" font-size="15px" font-style="normal" font-weight="normal" text-decoration="normal" x="0" y="0" text-anchor="end" dominant-baseline="central">OpenMPI+NCCL</text><g transform="rotate(74.48451336700703,0,0) translate(-1218,-539) translate(234,738) rotate(0,0,0)"><text fill="" stroke="none" font-family="helvetica" font-size="20px" font-style="normal" font-weight="bold" text-decoration="normal" x="0" y="0" text-anchor="middle" dominant-baseline="hanging">1</text><g transform="rotate(0,0,0) translate(-234,-738) translate(413,738) rotate(0,0,0)"><text fill="" stroke="none" font-family="helvetica" font-size="20px" font-style="normal" font-weight="bold" text-decoration="normal" x="0" y="0" text-anchor="middle" dominant-baseline="hanging">2</text><g transform="rotate(0,0,0) translate(-413,-738) translate(570,738) rotate(0,0,0)"><text fill="" stroke="none" font-family="helvetica" font-size="20px" font-style="normal" font-weight="bold" text-decoration="normal" x="0" y="0" text-anchor="middle" dominant-baseline="hanging">3</text><g transform="rotate(0,0,0) translate(-570,-738) translate(726,738) rotate(0,0,0)"><text fill="" stroke="none" font-family="helvetica" font-size="20px" font-style="normal" font-weight="bold" text-decoration="normal" x="0" y="0" text-anchor="middle" dominant-baseline="hanging">4</text><g transform="rotate(0,0,0) translate(-726,-738) translate(882,738) rotate(0,0,0)"><text fill="" stroke="none" font-family="helvetica" font-size="20px" font-style="normal" font-weight="bold" text-decoration="normal" x="0" y="0" text-anchor="middle" dominant-baseline="hanging">8</text><g transform="rotate(0,0,0) translate(-882,-738) translate(1039,738) rotate(0,0,0)"><text fill="" stroke="none" font-family="helvetica" font-size="20px" font-style="normal" font-weight="bold" text-decoration="normal" x="0" y="0" text-anchor="middle" dominant-baseline="hanging">16</text><g transform="rotate(0,0,0) translate(-1039,-738) translate(1195,738) rotate(0,0,0)"><text fill="" stroke="none" font-family="helvetica" font-size="20px" font-style="normal" font-weight="bold" text-decoration="normal" x="0" y="0" text-anchor="middle" dominant-baseline="hanging">32</text><g transform="rotate(0,0,0) translate(-1195,-738) translate(703,771) rotate(0,0,0)"><text fill="" stroke="none" font-family="helvetica" font-size="20px" font-style="italic" font-weight="normal" text-decoration="normal" x="0" y="0" text-anchor="middle" dominant-baseline="hanging">Number of GPUs</text><g transform="rotate(0,0,0) translate(-703,-771)"><path fill="none" stroke="" paint-order="fill stroke markers" d=" M 335 754 L 335 531"/><path fill="none" stroke="" paint-order="fill stroke markers" d=" M 491 754 L 491 531"/><path fill="none" stroke="" paint-order="fill stroke markers" d=" M 648 754 L 648 531"/><path fill="none" stroke="" paint-order="fill stroke markers" d=" M 804 754 L 804 531"/><path fill="none" stroke="" paint-order="fill stroke markers" d=" M 961 754 L 961 531"/><path fill="none" stroke="" paint-order="fill stroke markers" d=" M 1117 754 L 1117 531"/></g></g></g></g></g></g></g></g></g></g></g></g></g></g></g></g></g></g></g></g></g></g></g></g></g><g fill="#444444"><path fill="none" stroke="black" paint-order="fill stroke markers" d=" M 111 528 L 111 31" stroke-linejoin="bevel" stroke-miterlimit="10"/><path fill="none" stroke="black" paint-order="fill stroke markers" d=" M 105 528 L 113 528" stroke-linejoin="bevel" stroke-miterlimit="10"/><path fill="none" stroke="black" paint-order="fill stroke markers" d=" M 105 425 L 113 425" stroke-linejoin="bevel" stroke-miterlimit="10"/><path fill="none" stroke="black" paint-order="fill stroke markers" d=" M 105 323 L 113 323" stroke-linejoin="bevel" stroke-miterlimit="10"/><path fill="none" stroke="black" paint-order="fill stroke markers" d=" M 105 220 L 113 220" stroke-linejoin="bevel" stroke-miterlimit="10"/><path fill="none" stroke="black" paint-order="fill stroke markers" d=" M 105 117 L 113 117" stroke-linejoin="bevel" stroke-miterlimit="10"/><path fill="none" stroke="black" paint-order="fill stroke markers" d=" M 107 528 L 111 528" stroke-linejoin="bevel" stroke-miterlimit="10"/><path fill="none" stroke="black" paint-order="fill stroke markers" d=" M 107 507 L 111 507" stroke-linejoin="bevel" stroke-miterlimit="10"/><path fill="none" stroke="black" paint-order="fill stroke markers" d=" M 107 487 L 111 487" stroke-linejoin="bevel" stroke-miterlimit="10"/><path fill="none" stroke="black" paint-order="fill stroke markers" d=" M 107 466 L 111 466" stroke-linejoin="bevel" stroke-miterlimit="10"/><path fill="none" stroke="black" paint-order="fill stroke markers" d=" M 107 446 L 111 446" stroke-linejoin="bevel" stroke-miterlimit="10"/><path fill="none" stroke="black" paint-order="fill stroke markers" d=" M 107 425 L 111 425" stroke-linejoin="bevel" stroke-miterlimit="10"/><path fill="none" stroke="black" paint-order="fill stroke markers" d=" M 107 405 L 111 405" stroke-linejoin="bevel" stroke-miterlimit="10"/><path fill="none" stroke="black" paint-order="fill stroke markers" d=" M 107 384 L 111 384" stroke-linejoin="bevel" stroke-miterlimit="10"/><path fill="none" stroke="black" paint-order="fill stroke markers" d=" M 107 364 L 111 364" stroke-linejoin="bevel" stroke-miterlimit="10"/><path fill="none" stroke="black" paint-order="fill stroke markers" d=" M 107 343 L 111 343" stroke-linejoin="bevel" stroke-miterlimit="10"/><path fill="none" stroke="black" paint-order="fill stroke markers" d=" M 107 323 L 111 323" stroke-linejoin="bevel" stroke-miterlimit="10"/><path fill="none" stroke="black" paint-order="fill stroke markers" d=" M 107 302 L 111 302" stroke-linejoin="bevel" stroke-miterlimit="10"/><path fill="none" stroke="black" paint-order="fill stroke markers" d=" M 107 281 L 111 281" stroke-linejoin="bevel" stroke-miterlimit="10"/><path fill="none" stroke="black" paint-order="fill stroke markers" d=" M 107 261 L 111 261" stroke-linejoin="bevel" stroke-miterlimit="10"/><path fill="none" stroke="black" paint-order="fill stroke markers" d=" M 107 240 L 111 240" stroke-linejoin="bevel" stroke-miterlimit="10"/><path fill="none" stroke="black" paint-order="fill stroke markers" d=" M 107 220 L 111 220" stroke-linejoin="bevel" stroke-miterlimit="10"/><path fill="none" stroke="black" paint-order="fill stroke markers" d=" M 107 199 L 111 199" stroke-linejoin="bevel" stroke-miterlimit="10"/><path fill="none" stroke="black" paint-order="fill stroke markers" d=" M 107 179 L 111 179" stroke-linejoin="bevel" stroke-miterlimit="10"/><path fill="none" stroke="black" paint-order="fill stroke markers" d=" M 107 158 L 111 158" stroke-linejoin="bevel" stroke-miterlimit="10"/><path fill="none" stroke="black" paint-order="fill stroke markers" d=" M 107 138 L 111 138" stroke-linejoin="bevel" stroke-miterlimit="10"/><path fill="none" stroke="black" paint-order="fill stroke markers" d=" M 107 117 L 111 117" stroke-linejoin="bevel" stroke-miterlimit="10"/><path fill="none" stroke="black" paint-order="fill stroke markers" d=" M 107 97 L 111 97" stroke-linejoin="bevel" stroke-miterlimit="10"/><path fill="none" stroke="black" paint-order="fill stroke markers" d=" M 107 76 L 111 76" stroke-linejoin="bevel" stroke-miterlimit="10"/><path fill="none" stroke="black" paint-order="fill stroke markers" d=" M 107 56 L 111 56" stroke-linejoin="bevel" stroke-miterlimit="10"/><path fill="" stroke="black" paint-order="fill stroke markers" d=" M 107 35 L 111 35" stroke-linejoin="bevel" stroke-miterlimit="10"/><g transform="translate(100,528) rotate(0,0,0)"><text fill="" stroke="none" font-family="helvetica" font-size="20px" font-style="normal" font-weight="normal" text-decoration="normal" x="0" y="0" text-anchor="end" dominant-baseline="central">0</text><g transform="rotate(0,0,0) translate(-100,-528) translate(100,425) rotate(0,0,0)"><text fill="" stroke="none" font-family="helvetica" font-size="20px" font-style="normal" font-weight="normal" text-decoration="normal" x="0" y="0" text-anchor="end" dominant-baseline="central">200</text><g transform="rotate(0,0,0) translate(-100,-425) translate(100,323) rotate(0,0,0)"><text fill="" stroke="none" font-family="helvetica" font-size="20px" font-style="normal" font-weight="normal" text-decoration="normal" x="0" y="0" text-anchor="end" dominant-baseline="central">400</text><g transform="rotate(0,0,0) translate(-100,-323) translate(100,220) rotate(0,0,0)"><text fill="" stroke="none" font-family="helvetica" font-size="20px" font-style="normal" font-weight="normal" text-decoration="normal" x="0" y="0" text-anchor="end" dominant-baseline="central">600</text><g transform="rotate(0,0,0) translate(-100,-220) translate(100,117) rotate(0,0,0)"><text fill="" stroke="none" font-family="helvetica" font-size="20px" font-style="normal" font-weight="normal" text-decoration="normal" x="0" y="0" text-anchor="end" dominant-baseline="central">800</text><g transform="rotate(0,0,0) translate(-100,-117) translate(29,280) rotate(-90,0,0)"><text fill="" stroke="none" font-family="helvetica" font-size="20px" font-style="italic" font-weight="normal" text-decoration="normal" x="0" y="0" text-anchor="middle" dominant-baseline="alphabetic">Images/Second</text><g transform="rotate(90,0,0) translate(-29,-280)"/></g></g></g></g></g></g></g><g/><g><path fill="#ffffff" stroke="#e5e5e5" paint-order="fill stroke markers" d=" M 1295 36 L 1580 36 L 1580 128 L 1295 128 L 1295 36 Z" fill-opacity="0.95" stroke-linejoin="bevel" stroke-miterlimit="10" stroke-opacity="0.5"/><text fill="#444444" stroke="none" font-family="helvetica" font-size="20px" font-style="normal" font-weight="normal" text-decoration="normal" x="1330" y="57" text-anchor="start" dominant-baseline="central">Single GPU</text><rect fill="#8a4b9a" stroke="none" x="1307" y="48" width="16" height="16"/><path fill="none" stroke="white" paint-order="fill stroke markers" d=" M 1307 48 L 1323 48 L 1323 64 L 1307 64 L 1307 48 Z" stroke-linejoin="bevel" stroke-miterlimit="10"/><text fill="#444444" stroke="none" font-family="helvetica" font-size="20px" font-style="normal" font-weight="normal" text-decoration="normal" x="1330" y="82" text-anchor="start" dominant-baseline="central">IntelMPI</text><rect fill="#717cbb" stroke="none" x="1307" y="73" width="16" height="16"/><path fill="none" stroke="white" paint-order="fill stroke markers" d=" M 1307 73 L 1323 73 L 1323 89 L 1307 89 L 1307 73 Z" stroke-linejoin="bevel" stroke-miterlimit="10"/><text fill="#444444" stroke="none" font-family="helvetica" font-size="20px" font-style="normal" font-weight="normal" text-decoration="normal" x="1330" y="107" text-anchor="start" dominant-baseline="central">OpenMPI+NCCL</text><rect fill="#89b9df" stroke="none" x="1307" y="98" width="16" height="16"/><path fill="none" stroke="white" paint-order="fill stroke markers" d=" M 1307 98 L 1323 98 L 1323 114 L 1307 114 L 1307 98 Z" stroke-linejoin="bevel" stroke-miterlimit="10"/></g><g fill="#444444"><path fill="" stroke="none" d=""/><g transform="translate(111,26)"><path fill="none" stroke="none"/><text fill="" stroke="none" font-family="helvetica" font-size="10pt" font-style="normal" font-weight="bold" text-decoration="normal" x="0" y="0" text-anchor="start" dominant-baseline="text-after-edge">Training throughput for ResNet50 with synthetic data (k80)</text></g></g></g></g></g></svg>