<svg version="1.1" xmlns="http://www.w3.org/2000/svg" xmlns:xlink="http://www.w3.org/1999/xlink" width="800" height="500" style="width: 800px; height: 500px;"><defs><clipPath id="nIXxsrPxFoHC"><path fill="none" stroke="none" d=" M 83 31 L 579 31 L 579 326 L 83 326 L 83 31 Z"/></clipPath><clipPath id="QeWVZVpOXrIZ"><path fill="none" stroke="none" d=" M 83 31 L 579 31 L 579 326 L 83 326 L 83 31 Z"/></clipPath></defs><g><g/><g/><g/><g transform="scale(1,1) translate(0.5,0.5)"><rect fill="#FFFFFF" stroke="none" x="0" y="0" width="800" height="500"/><rect fill="#ffffff" stroke="none" x="0" y="0" width="800" height="500"/><rect fill="#FFFFFF" stroke="none" x="83" y="31" width="496" height="295"/><rect fill="#ffffff" stroke="none" x="83" y="31" width="496" height="295"/><g><rect fill="none" stroke="#e5e5e5" x="83" y="31" width="496" height="295" stroke-linejoin="bevel" stroke-miterlimit="10"/></g><g clip-path="url(#nIXxsrPxFoHC)"><g><g/><g><path fill="none" stroke="#e5e5e5" paint-order="fill stroke markers" d=" M 83 283 L 579 283" stroke-linejoin="bevel" stroke-miterlimit="10"/><path fill="none" stroke="#e5e5e5" paint-order="fill stroke markers" d=" M 83 240 L 579 240" stroke-linejoin="bevel" stroke-miterlimit="10"/><path fill="none" stroke="#e5e5e5" paint-order="fill stroke markers" d=" M 83 197 L 579 197" stroke-linejoin="bevel" stroke-miterlimit="10"/><path fill="none" stroke="#e5e5e5" paint-order="fill stroke markers" d=" M 83 153 L 579 153" stroke-linejoin="bevel" stroke-miterlimit="10"/><path fill="none" stroke="#e5e5e5" paint-order="fill stroke markers" d=" M 83 110 L 579 110" stroke-linejoin="bevel" stroke-miterlimit="10"/><path fill="none" stroke="#e5e5e5" paint-order="fill stroke markers" d=" M 83 67 L 579 67" stroke-linejoin="bevel" stroke-miterlimit="10"/></g><g><path fill="none" stroke="none"/><rect fill="#717cbb" stroke="none" x="141.08241758241758" y="311.5234321283189" width="15.329670329670307" height="14.476567871681084"/><path fill="none" stroke="white" paint-order="fill stroke markers" d=" M 141.08241758241758 311.5234321283189 L 156.41208791208788 311.5234321283189 L 156.41208791208788 326 L 141.08241758241758 326 L 141.08241758241758 311.5234321283189 Z" stroke-linejoin="bevel" stroke-miterlimit="10"/><rect fill="#89b9df" stroke="none" x="158.11538461538458" y="310.9268738205648" width="15.329670329670364" height="15.073126179435178"/><path fill="none" stroke="white" paint-order="fill stroke markers" d=" M 158.11538461538458 310.9268738205648 L 173.44505494505495 310.9268738205648 L 173.44505494505495 326 L 158.11538461538458 326 L 158.11538461538458 310.9268738205648 Z" stroke-linejoin="bevel" stroke-miterlimit="10"/><rect fill="#717cbb" stroke="none" x="198.99450549450552" y="297.1870533022055" width="15.329670329670307" height="28.812946697794473"/><path fill="none" stroke="white" paint-order="fill stroke markers" d=" M 198.99450549450552 297.1870533022055 L 214.32417582417582 297.1870533022055 L 214.32417582417582 326 L 198.99450549450552 326 L 198.99450549450552 297.1870533022055 Z" stroke-linejoin="bevel" stroke-miterlimit="10"/><rect fill="#89b9df" stroke="none" x="216.02747252747253" y="296.93255626563655" width="15.329670329670307" height="29.06744373436345"/><path fill="none" stroke="white" paint-order="fill stroke markers" d=" M 216.02747252747253 296.93255626563655 L 231.35714285714283 296.93255626563655 L 231.35714285714283 326 L 216.02747252747253 326 L 216.02747252747253 296.93255626563655 Z" stroke-linejoin="bevel" stroke-miterlimit="10"/><rect fill="#717cbb" stroke="none" x="256.9065934065934" y="292.66318874764613" width="15.329670329670307" height="33.33681125235387"/><path fill="none" stroke="white" paint-order="fill stroke markers" d=" M 256.9065934065934 292.66318874764613 L 272.2362637362637 292.66318874764613 L 272.2362637362637 326 L 256.9065934065934 326 L 256.9065934065934 292.66318874764613 Z" stroke-linejoin="bevel" stroke-miterlimit="10"/><rect fill="#89b9df" stroke="none" x="273.9395604395604" y="284.98169175235705" width="15.32967032967042" height="41.01830824764295"/><path fill="none" stroke="white" paint-order="fill stroke markers" d=" M 273.9395604395604 284.98169175235705 L 289.26923076923083 284.98169175235705 L 289.26923076923083 326 L 273.9395604395604 326 L 273.9395604395604 284.98169175235705 Z" stroke-linejoin="bevel" stroke-miterlimit="10"/><rect fill="#717cbb" stroke="none" x="314.81868131868134" y="283.77096164138015" width="15.329670329670307" height="42.229038358619846"/><path fill="none" stroke="white" paint-order="fill stroke markers" d=" M 314.81868131868134 283.77096164138015 L 330.14835164835165 283.77096164138015 L 330.14835164835165 326 L 314.81868131868134 326 L 314.81868131868134 283.77096164138015 Z" stroke-linejoin="bevel" stroke-miterlimit="10"/><rect fill="#89b9df" stroke="none" x="331.85164835164835" y="272.3655044071771" width="15.329670329670307" height="53.63449559282287"/><path fill="none" stroke="white" paint-order="fill stroke markers" d=" M 331.85164835164835 272.3655044071771 L 347.18131868131866 272.3655044071771 L 347.18131868131866 326 L 331.85164835164835 326 L 331.85164835164835 272.3655044071771 Z" stroke-linejoin="bevel" stroke-miterlimit="10"/><rect fill="#717cbb" stroke="none" x="372.7307692307692" y="247.97994344386416" width="15.329670329670307" height="78.02005655613584"/><path fill="none" stroke="white" paint-order="fill stroke markers" d=" M 372.7307692307692 247.97994344386416 L 388.06043956043953 247.97994344386416 L 388.06043956043953 326 L 372.7307692307692 326 L 372.7307692307692 247.97994344386416 Z" stroke-linejoin="bevel" stroke-miterlimit="10"/><rect fill="#89b9df" stroke="none" x="389.7637362637363" y="272.2172814509212" width="15.329670329670193" height="53.78271854907882"/><path fill="none" stroke="white" paint-order="fill stroke markers" d=" M 389.7637362637363 272.2172814509212 L 405.0934065934065 272.2172814509212 L 405.0934065934065 326 L 389.7637362637363 326 L 389.7637362637363 272.2172814509212 Z" stroke-linejoin="bevel" stroke-miterlimit="10"/><rect fill="#717cbb" stroke="none" x="430.64285714285717" y="179.1610600964027" width="15.329670329670307" height="146.8389399035973"/><path fill="none" stroke="white" paint-order="fill stroke markers" d=" M 430.64285714285717 179.1610600964027 L 445.9725274725275 179.1610600964027 L 445.9725274725275 326 L 430.64285714285717 326 L 430.64285714285717 179.1610600964027 Z" stroke-linejoin="bevel" stroke-miterlimit="10"/><rect fill="#89b9df" stroke="none" x="447.6758241758242" y="230.68800210513865" width="15.329670329670307" height="95.31199789486135"/><path fill="none" stroke="white" paint-order="fill stroke markers" d=" M 447.6758241758242 230.68800210513865 L 463.0054945054945 230.68800210513865 L 463.0054945054945 326 L 447.6758241758242 326 L 447.6758241758242 230.68800210513865 Z" stroke-linejoin="bevel" stroke-miterlimit="10"/><rect fill="#717cbb" stroke="none" x="488.55494505494505" y="45.047619047619094" width="15.329670329670307" height="280.9523809523809"/><path fill="none" stroke="white" paint-order="fill stroke markers" d=" M 488.55494505494505 45.047619047619094 L 503.88461538461536 45.047619047619094 L 503.88461538461536 326 L 488.55494505494505 326 L 488.55494505494505 45.047619047619094 Z" stroke-linejoin="bevel" stroke-miterlimit="10"/><rect fill="#89b9df" stroke="none" x="505.58791208791206" y="141.88548034547296" width="15.329670329670307" height="184.11451965452704"/><path fill="none" stroke="white" paint-order="fill stroke markers" d=" M 505.58791208791206 141.88548034547296 L 520.9175824175824 141.88548034547296 L 520.9175824175824 326 L 505.58791208791206 326 L 505.58791208791206 141.88548034547296 Z" stroke-linejoin="bevel" stroke-miterlimit="10"/></g><g><path fill="none" stroke="none"/><rect fill="#8a4b9a" stroke="none" x="98.5" y="310.9027181696363" width="15.329670329670307" height="15.097281830363727"/><path fill="none" stroke="white" paint-order="fill stroke markers" d=" M 98.5 310.9027181696363 L 113.82967032967031 310.9027181696363 L 113.82967032967031 326 L 98.5 326 L 98.5 310.9027181696363 Z" stroke-linejoin="bevel" stroke-miterlimit="10"/></g></g></g><g clip-path="url(#QeWVZVpOXrIZ)"><g><g fill="#8a4b9a"><path fill="" stroke="none" d=""/><g transform="translate(106.16483516483515,304.4324545280518) rotate(-74.48451336700703,0,0)"><path fill="none" stroke="none"/><text fill="" stroke="none" font-family="helvetica" font-size="12pt" font-style="normal" font-weight="normal" text-decoration="normal" x="0" y="0" text-anchor="start" dominant-baseline="text-after-edge">Single GPU</text></g></g></g></g><g><g fill="grey" stroke="lightgrey" stroke-linejoin="bevel" stroke-miterlimit="10" stroke-width="2"><path fill="none" stroke="black" paint-order="fill stroke markers" d=" M 83 326 L 579 326" stroke-linejoin="bevel" stroke-miterlimit="10"/><path fill="none" stroke="black" paint-order="fill stroke markers" d=" M 149 332 L 149 324" stroke-linejoin="bevel" stroke-miterlimit="10"/><path fill="none" stroke="black" paint-order="fill stroke markers" d=" M 166 332 L 166 324" stroke-linejoin="bevel" stroke-miterlimit="10"/><path fill="none" stroke="black" paint-order="fill stroke markers" d=" M 207 332 L 207 324" stroke-linejoin="bevel" stroke-miterlimit="10"/><path fill="none" stroke="black" paint-order="fill stroke markers" d=" M 224 332 L 224 324" stroke-linejoin="bevel" stroke-miterlimit="10"/><path fill="none" stroke="black" paint-order="fill stroke markers" d=" M 265 332 L 265 324" stroke-linejoin="bevel" stroke-miterlimit="10"/><path fill="none" stroke="black" paint-order="fill stroke markers" d=" M 282 332 L 282 324" stroke-linejoin="bevel" stroke-miterlimit="10"/><path fill="none" stroke="black" paint-order="fill stroke markers" d=" M 322 332 L 322 324" stroke-linejoin="bevel" stroke-miterlimit="10"/><path fill="none" stroke="black" paint-order="fill stroke markers" d=" M 340 332 L 340 324" stroke-linejoin="bevel" stroke-miterlimit="10"/><path fill="none" stroke="black" paint-order="fill stroke markers" d=" M 380 332 L 380 324" stroke-linejoin="bevel" stroke-miterlimit="10"/><path fill="none" stroke="black" paint-order="fill stroke markers" d=" M 397 332 L 397 324" stroke-linejoin="bevel" stroke-miterlimit="10"/><path fill="none" stroke="black" paint-order="fill stroke markers" d=" M 438 332 L 438 324" stroke-linejoin="bevel" stroke-miterlimit="10"/><path fill="none" stroke="black" paint-order="fill stroke markers" d=" M 455 332 L 455 324" stroke-linejoin="bevel" stroke-miterlimit="10"/><path fill="none" stroke="black" paint-order="fill stroke markers" d=" M 496 332 L 496 324" stroke-linejoin="bevel" stroke-miterlimit="10"/><path fill="" stroke="" paint-order="fill stroke markers" d=" M 513 332 L 513 324" stroke-linejoin="bevel" stroke-miterlimit="10"/><g transform="translate(149,337) rotate(-74.48451336700703,0,0)"><text fill="" stroke="none" font-family="helvetica" font-size="8pt" font-style="normal" font-weight="normal" text-decoration="normal" x="0" y="0" text-anchor="end" dominant-baseline="central">IntelMPI</text><g transform="rotate(74.48451336700703,0,0) translate(-149,-337) translate(166,337) rotate(-74.48451336700703,0,0)"><text fill="" stroke="none" font-family="helvetica" font-size="8pt" font-style="normal" font-weight="normal" text-decoration="normal" x="0" y="0" text-anchor="end" dominant-baseline="central">OpenMPI+NCCL</text><g transform="rotate(74.48451336700703,0,0) translate(-166,-337) translate(207,337) rotate(-74.48451336700703,0,0)"><text fill="" stroke="none" font-family="helvetica" font-size="8pt" font-style="normal" font-weight="normal" text-decoration="normal" x="0" y="0" text-anchor="end" dominant-baseline="central">IntelMPI</text><g transform="rotate(74.48451336700703,0,0) translate(-207,-337) translate(224,337) rotate(-74.48451336700703,0,0)"><text fill="" stroke="none" font-family="helvetica" font-size="8pt" font-style="normal" font-weight="normal" text-decoration="normal" x="0" y="0" text-anchor="end" dominant-baseline="central">OpenMPI+NCCL</text><g transform="rotate(74.48451336700703,0,0) translate(-224,-337) translate(265,337) rotate(-74.48451336700703,0,0)"><text fill="" stroke="none" font-family="helvetica" font-size="8pt" font-style="normal" font-weight="normal" text-decoration="normal" x="0" y="0" text-anchor="end" dominant-baseline="central">IntelMPI</text><g transform="rotate(74.48451336700703,0,0) translate(-265,-337) translate(282,337) rotate(-74.48451336700703,0,0)"><text fill="" stroke="none" font-family="helvetica" font-size="8pt" font-style="normal" font-weight="normal" text-decoration="normal" x="0" y="0" text-anchor="end" dominant-baseline="central">OpenMPI+NCCL</text><g transform="rotate(74.48451336700703,0,0) translate(-282,-337) translate(322,337) rotate(-74.48451336700703,0,0)"><text fill="" stroke="none" font-family="helvetica" font-size="8pt" font-style="normal" font-weight="normal" text-decoration="normal" x="0" y="0" text-anchor="end" dominant-baseline="central">IntelMPI</text><g transform="rotate(74.48451336700703,0,0) translate(-322,-337) translate(340,337) rotate(-74.48451336700703,0,0)"><text fill="" stroke="none" font-family="helvetica" font-size="8pt" font-style="normal" font-weight="normal" text-decoration="normal" x="0" y="0" text-anchor="end" dominant-baseline="central">OpenMPI+NCCL</text><g transform="rotate(74.48451336700703,0,0) translate(-340,-337) translate(380,337) rotate(-74.48451336700703,0,0)"><text fill="" stroke="none" font-family="helvetica" font-size="8pt" font-style="normal" font-weight="normal" text-decoration="normal" x="0" y="0" text-anchor="end" dominant-baseline="central">IntelMPI</text><g transform="rotate(74.48451336700703,0,0) translate(-380,-337) translate(397,337) rotate(-74.48451336700703,0,0)"><text fill="" stroke="none" font-family="helvetica" font-size="8pt" font-style="normal" font-weight="normal" text-decoration="normal" x="0" y="0" text-anchor="end" dominant-baseline="central">OpenMPI+NCCL</text><g transform="rotate(74.48451336700703,0,0) translate(-397,-337) translate(438,337) rotate(-74.48451336700703,0,0)"><text fill="" stroke="none" font-family="helvetica" font-size="8pt" font-style="normal" font-weight="normal" text-decoration="normal" x="0" y="0" text-anchor="end" dominant-baseline="central">IntelMPI</text><g transform="rotate(74.48451336700703,0,0) translate(-438,-337) translate(455,337) rotate(-74.48451336700703,0,0)"><text fill="" stroke="none" font-family="helvetica" font-size="8pt" font-style="normal" font-weight="normal" text-decoration="normal" x="0" y="0" text-anchor="end" dominant-baseline="central">OpenMPI+NCCL</text><g transform="rotate(74.48451336700703,0,0) translate(-455,-337) translate(496,337) rotate(-74.48451336700703,0,0)"><text fill="" stroke="none" font-family="helvetica" font-size="8pt" font-style="normal" font-weight="normal" text-decoration="normal" x="0" y="0" text-anchor="end" dominant-baseline="central">IntelMPI</text><g transform="rotate(74.48451336700703,0,0) translate(-496,-337) translate(513,337) rotate(-74.48451336700703,0,0)"><text fill="" stroke="none" font-family="helvetica" font-size="8pt" font-style="normal" font-weight="normal" text-decoration="normal" x="0" y="0" text-anchor="end" dominant-baseline="central">OpenMPI+NCCL</text><g transform="rotate(74.48451336700703,0,0) translate(-513,-337) translate(157,484) rotate(0,0,0)"><text fill="" stroke="none" font-family="helvetica" font-size="8pt" font-style="normal" font-weight="bold" text-decoration="normal" x="0" y="0" text-anchor="middle" dominant-baseline="hanging">1</text><g transform="rotate(0,0,0) translate(-157,-484) translate(215,484) rotate(0,0,0)"><text fill="" stroke="none" font-family="helvetica" font-size="8pt" font-style="normal" font-weight="bold" text-decoration="normal" x="0" y="0" text-anchor="middle" dominant-baseline="hanging">2</text><g transform="rotate(0,0,0) translate(-215,-484) translate(273,484) rotate(0,0,0)"><text fill="" stroke="none" font-family="helvetica" font-size="8pt" font-style="normal" font-weight="bold" text-decoration="normal" x="0" y="0" text-anchor="middle" dominant-baseline="hanging">3</text><g transform="rotate(0,0,0) translate(-273,-484) translate(331,484) rotate(0,0,0)"><text fill="" stroke="none" font-family="helvetica" font-size="8pt" font-style="normal" font-weight="bold" text-decoration="normal" x="0" y="0" text-anchor="middle" dominant-baseline="hanging">4</text><g transform="rotate(0,0,0) translate(-331,-484) translate(389,484) rotate(0,0,0)"><text fill="" stroke="none" font-family="helvetica" font-size="8pt" font-style="normal" font-weight="bold" text-decoration="normal" x="0" y="0" text-anchor="middle" dominant-baseline="hanging">8</text><g transform="rotate(0,0,0) translate(-389,-484) translate(447,484) rotate(0,0,0)"><text fill="" stroke="none" font-family="helvetica" font-size="8pt" font-style="normal" font-weight="bold" text-decoration="normal" x="0" y="0" text-anchor="middle" dominant-baseline="hanging">16</text><g transform="rotate(0,0,0) translate(-447,-484) translate(505,484) rotate(0,0,0)"><text fill="" stroke="none" font-family="helvetica" font-size="8pt" font-style="normal" font-weight="bold" text-decoration="normal" x="0" y="0" text-anchor="middle" dominant-baseline="hanging">32</text><g transform="rotate(0,0,0) translate(-505,-484)"><path fill="none" stroke="" paint-order="fill stroke markers" d=" M 186 488 L 186 329"/><path fill="none" stroke="" paint-order="fill stroke markers" d=" M 244 488 L 244 329"/><path fill="none" stroke="" paint-order="fill stroke markers" d=" M 302 488 L 302 329"/><path fill="none" stroke="" paint-order="fill stroke markers" d=" M 360 488 L 360 329"/><path fill="none" stroke="" paint-order="fill stroke markers" d=" M 418 488 L 418 329"/><path fill="none" stroke="" paint-order="fill stroke markers" d=" M 476 488 L 476 329"/></g></g></g></g></g></g></g></g></g></g></g></g></g></g></g></g></g></g></g></g></g></g></g><g fill="#444444"><path fill="none" stroke="black" paint-order="fill stroke markers" d=" M 83 326 L 83 31" stroke-linejoin="bevel" stroke-miterlimit="10"/><path fill="none" stroke="black" paint-order="fill stroke markers" d=" M 77 326 L 85 326" stroke-linejoin="bevel" stroke-miterlimit="10"/><path fill="none" stroke="black" paint-order="fill stroke markers" d=" M 77 283 L 85 283" stroke-linejoin="bevel" stroke-miterlimit="10"/><path fill="none" stroke="black" paint-order="fill stroke markers" d=" M 77 240 L 85 240" stroke-linejoin="bevel" stroke-miterlimit="10"/><path fill="none" stroke="black" paint-order="fill stroke markers" d=" M 77 197 L 85 197" stroke-linejoin="bevel" stroke-miterlimit="10"/><path fill="none" stroke="black" paint-order="fill stroke markers" d=" M 77 153 L 85 153" stroke-linejoin="bevel" stroke-miterlimit="10"/><path fill="none" stroke="black" paint-order="fill stroke markers" d=" M 77 110 L 85 110" stroke-linejoin="bevel" stroke-miterlimit="10"/><path fill="none" stroke="black" paint-order="fill stroke markers" d=" M 77 67 L 85 67" stroke-linejoin="bevel" stroke-miterlimit="10"/><path fill="none" stroke="black" paint-order="fill stroke markers" d=" M 79 326 L 83 326" stroke-linejoin="bevel" stroke-miterlimit="10"/><path fill="none" stroke="black" paint-order="fill stroke markers" d=" M 79 317 L 83 317" stroke-linejoin="bevel" stroke-miterlimit="10"/><path fill="none" stroke="black" paint-order="fill stroke markers" d=" M 79 309 L 83 309" stroke-linejoin="bevel" stroke-miterlimit="10"/><path fill="none" stroke="black" paint-order="fill stroke markers" d=" M 79 300 L 83 300" stroke-linejoin="bevel" stroke-miterlimit="10"/><path fill="none" stroke="black" paint-order="fill stroke markers" d=" M 79 291 L 83 291" stroke-linejoin="bevel" stroke-miterlimit="10"/><path fill="none" stroke="black" paint-order="fill stroke markers" d=" M 79 283 L 83 283" stroke-linejoin="bevel" stroke-miterlimit="10"/><path fill="none" stroke="black" paint-order="fill stroke markers" d=" M 79 274 L 83 274" stroke-linejoin="bevel" stroke-miterlimit="10"/><path fill="none" stroke="black" paint-order="fill stroke markers" d=" M 79 266 L 83 266" stroke-linejoin="bevel" stroke-miterlimit="10"/><path fill="none" stroke="black" paint-order="fill stroke markers" d=" M 79 257 L 83 257" stroke-linejoin="bevel" stroke-miterlimit="10"/><path fill="none" stroke="black" paint-order="fill stroke markers" d=" M 79 248 L 83 248" stroke-linejoin="bevel" stroke-miterlimit="10"/><path fill="none" stroke="black" paint-order="fill stroke markers" d=" M 79 240 L 83 240" stroke-linejoin="bevel" stroke-miterlimit="10"/><path fill="none" stroke="black" paint-order="fill stroke markers" d=" M 79 231 L 83 231" stroke-linejoin="bevel" stroke-miterlimit="10"/><path fill="none" stroke="black" paint-order="fill stroke markers" d=" M 79 222 L 83 222" stroke-linejoin="bevel" stroke-miterlimit="10"/><path fill="none" stroke="black" paint-order="fill stroke markers" d=" M 79 214 L 83 214" stroke-linejoin="bevel" stroke-miterlimit="10"/><path fill="none" stroke="black" paint-order="fill stroke markers" d=" M 79 205 L 83 205" stroke-linejoin="bevel" stroke-miterlimit="10"/><path fill="none" stroke="black" paint-order="fill stroke markers" d=" M 79 197 L 83 197" stroke-linejoin="bevel" stroke-miterlimit="10"/><path fill="none" stroke="black" paint-order="fill stroke markers" d=" M 79 188 L 83 188" stroke-linejoin="bevel" stroke-miterlimit="10"/><path fill="none" stroke="black" paint-order="fill stroke markers" d=" M 79 179 L 83 179" stroke-linejoin="bevel" stroke-miterlimit="10"/><path fill="none" stroke="black" paint-order="fill stroke markers" d=" M 79 171 L 83 171" stroke-linejoin="bevel" stroke-miterlimit="10"/><path fill="none" stroke="black" paint-order="fill stroke markers" d=" M 79 162 L 83 162" stroke-linejoin="bevel" stroke-miterlimit="10"/><path fill="none" stroke="black" paint-order="fill stroke markers" d=" M 79 153 L 83 153" stroke-linejoin="bevel" stroke-miterlimit="10"/><path fill="none" stroke="black" paint-order="fill stroke markers" d=" M 79 145 L 83 145" stroke-linejoin="bevel" stroke-miterlimit="10"/><path fill="none" stroke="black" paint-order="fill stroke markers" d=" M 79 136 L 83 136" stroke-linejoin="bevel" stroke-miterlimit="10"/><path fill="none" stroke="black" paint-order="fill stroke markers" d=" M 79 128 L 83 128" stroke-linejoin="bevel" stroke-miterlimit="10"/><path fill="none" stroke="black" paint-order="fill stroke markers" d=" M 79 119 L 83 119" stroke-linejoin="bevel" stroke-miterlimit="10"/><path fill="none" stroke="black" paint-order="fill stroke markers" d=" M 79 110 L 83 110" stroke-linejoin="bevel" stroke-miterlimit="10"/><path fill="none" stroke="black" paint-order="fill stroke markers" d=" M 79 102 L 83 102" stroke-linejoin="bevel" stroke-miterlimit="10"/><path fill="none" stroke="black" paint-order="fill stroke markers" d=" M 79 93 L 83 93" stroke-linejoin="bevel" stroke-miterlimit="10"/><path fill="none" stroke="black" paint-order="fill stroke markers" d=" M 79 84 L 83 84" stroke-linejoin="bevel" stroke-miterlimit="10"/><path fill="none" stroke="black" paint-order="fill stroke markers" d=" M 79 76 L 83 76" stroke-linejoin="bevel" stroke-miterlimit="10"/><path fill="none" stroke="black" paint-order="fill stroke markers" d=" M 79 67 L 83 67" stroke-linejoin="bevel" stroke-miterlimit="10"/><path fill="none" stroke="black" paint-order="fill stroke markers" d=" M 79 59 L 83 59" stroke-linejoin="bevel" stroke-miterlimit="10"/><path fill="none" stroke="black" paint-order="fill stroke markers" d=" M 79 50 L 83 50" stroke-linejoin="bevel" stroke-miterlimit="10"/><path fill="none" stroke="black" paint-order="fill stroke markers" d=" M 79 41 L 83 41" stroke-linejoin="bevel" stroke-miterlimit="10"/><path fill="" stroke="black" paint-order="fill stroke markers" d=" M 79 33 L 83 33" stroke-linejoin="bevel" stroke-miterlimit="10"/><g transform="translate(72,326) rotate(0,0,0)"><text fill="" stroke="none" font-family="helvetica" font-size="8pt" font-style="normal" font-weight="normal" text-decoration="normal" x="0" y="0" text-anchor="end" dominant-baseline="central">0</text><g transform="rotate(0,0,0) translate(-72,-326) translate(72,283) rotate(0,0,0)"><text fill="" stroke="none" font-family="helvetica" font-size="8pt" font-style="normal" font-weight="normal" text-decoration="normal" x="0" y="0" text-anchor="end" dominant-baseline="central">1000</text><g transform="rotate(0,0,0) translate(-72,-283) translate(72,240) rotate(0,0,0)"><text fill="" stroke="none" font-family="helvetica" font-size="8pt" font-style="normal" font-weight="normal" text-decoration="normal" x="0" y="0" text-anchor="end" dominant-baseline="central">2000</text><g transform="rotate(0,0,0) translate(-72,-240) translate(72,197) rotate(0,0,0)"><text fill="" stroke="none" font-family="helvetica" font-size="8pt" font-style="normal" font-weight="normal" text-decoration="normal" x="0" y="0" text-anchor="end" dominant-baseline="central">3000</text><g transform="rotate(0,0,0) translate(-72,-197) translate(72,153) rotate(0,0,0)"><text fill="" stroke="none" font-family="helvetica" font-size="8pt" font-style="normal" font-weight="normal" text-decoration="normal" x="0" y="0" text-anchor="end" dominant-baseline="central">4000</text><g transform="rotate(0,0,0) translate(-72,-153) translate(72,110) rotate(0,0,0)"><text fill="" stroke="none" font-family="helvetica" font-size="8pt" font-style="normal" font-weight="normal" text-decoration="normal" x="0" y="0" text-anchor="end" dominant-baseline="central">5000</text><g transform="rotate(0,0,0) translate(-72,-110) translate(72,67) rotate(0,0,0)"><text fill="" stroke="none" font-family="helvetica" font-size="8pt" font-style="normal" font-weight="normal" text-decoration="normal" x="0" y="0" text-anchor="end" dominant-baseline="central">6000</text><g transform="rotate(0,0,0) translate(-72,-67) translate(19,179) rotate(-90,0,0)"><text fill="" stroke="none" font-family="helvetica" font-size="10pt" font-style="italic" font-weight="normal" text-decoration="normal" x="0" y="0" text-anchor="middle" dominant-baseline="alphabetic">Images/Second</text><g transform="rotate(90,0,0) translate(-19,-179)"/></g></g></g></g></g></g></g></g></g><g/><g><path fill="#ffffff" stroke="#e5e5e5" paint-order="fill stroke markers" d=" M 579 140 L 780 140 L 780 226 L 579 226 L 579 140 Z" fill-opacity="0.95" stroke-linejoin="bevel" stroke-miterlimit="10" stroke-opacity="0.5"/><text fill="#444444" stroke="none" font-family="helvetica" font-size="10pt" font-style="normal" font-weight="normal" text-decoration="normal" x="614" y="160" text-anchor="start" dominant-baseline="central">IntelMPI</text><rect fill="#717cbb" stroke="none" x="591" y="152" width="16" height="16"/><path fill="none" stroke="white" paint-order="fill stroke markers" d=" M 591 152 L 607 152 L 607 168 L 591 168 L 591 152 Z" stroke-linejoin="bevel" stroke-miterlimit="10"/><text fill="#444444" stroke="none" font-family="helvetica" font-size="10pt" font-style="normal" font-weight="normal" text-decoration="normal" x="614" y="183" text-anchor="start" dominant-baseline="central">OpenMPI+NCCL</text><rect fill="#89b9df" stroke="none" x="591" y="175" width="16" height="16"/><path fill="none" stroke="white" paint-order="fill stroke markers" d=" M 591 175 L 607 175 L 607 191 L 591 191 L 591 175 Z" stroke-linejoin="bevel" stroke-miterlimit="10"/><text fill="#444444" stroke="none" font-family="helvetica" font-size="10pt" font-style="normal" font-weight="normal" text-decoration="normal" x="614" y="206" text-anchor="start" dominant-baseline="central">Single GPU</text><rect fill="#8a4b9a" stroke="none" x="591" y="198" width="16" height="16"/><path fill="none" stroke="white" paint-order="fill stroke markers" d=" M 591 198 L 607 198 L 607 214 L 591 214 L 591 198 Z" stroke-linejoin="bevel" stroke-miterlimit="10"/></g><g fill="#444444"><path fill="" stroke="none" d=""/><g transform="translate(83,26)"><path fill="none" stroke="none"/><text fill="" stroke="none" font-family="helvetica" font-size="10pt" font-style="normal" font-weight="bold" text-decoration="normal" x="0" y="0" text-anchor="start" dominant-baseline="text-after-edge">Training throughput for ResNet50 with synthetic data (V100)</text></g></g></g></g></g></svg>