<svg version="1.1" xmlns="http://www.w3.org/2000/svg" xmlns:xlink="http://www.w3.org/1999/xlink" width="1600" height="800" style="width: 1600px; height: 800px;"><defs><clipPath id="VzPbleXGkCRz"><path fill="none" stroke="none" d=" M 133 31 L 1295 31 L 1295 528 L 133 528 L 133 31 Z"/></clipPath><clipPath id="TPGhEXVnuxBK"><path fill="none" stroke="none" d=" M 133 31 L 1295 31 L 1295 528 L 133 528 L 133 31 Z"/></clipPath></defs><g><g/><g/><g/><g transform="scale(1,1) translate(0.5,0.5)"><rect fill="#FFFFFF" stroke="none" x="0" y="0" width="1600" height="800"/><rect fill="#ffffff" stroke="none" x="0" y="0" width="1600" height="800"/><rect fill="#FFFFFF" stroke="none" x="133" y="31" width="1162" height="497"/><rect fill="#ffffff" stroke="none" x="133" y="31" width="1162" height="497"/><g><rect fill="none" stroke="#e5e5e5" x="133" y="31" width="1162" height="497" stroke-linejoin="bevel" stroke-miterlimit="10"/></g><g clip-path="url(#VzPbleXGkCRz)"><g><g/><g><path fill="none" stroke="#e5e5e5" paint-order="fill stroke markers" d=" M 133 433 L 1295 433" stroke-linejoin="bevel" stroke-miterlimit="10"/><path fill="none" stroke="#e5e5e5" paint-order="fill stroke markers" d=" M 133 339 L 1295 339" stroke-linejoin="bevel" stroke-miterlimit="10"/><path fill="none" stroke="#e5e5e5" paint-order="fill stroke markers" d=" M 133 244 L 1295 244" stroke-linejoin="bevel" stroke-miterlimit="10"/><path fill="none" stroke="#e5e5e5" paint-order="fill stroke markers" d=" M 133 150 L 1295 150" stroke-linejoin="bevel" stroke-miterlimit="10"/><path fill="none" stroke="#e5e5e5" paint-order="fill stroke markers" d=" M 133 55 L 1295 55" stroke-linejoin="bevel" stroke-miterlimit="10"/></g><g><path fill="none" stroke="none"/><rect fill="#8a4b9a" stroke="none" x="188.07536907536908" y="510.19869448899414" width="40.62937062937061" height="17.801305511005864"/><path fill="none" stroke="white" paint-order="fill stroke markers" d=" M 188.07536907536908 510.19869448899414 L 228.7047397047397 510.19869448899414 L 228.7047397047397 528 L 188.07536907536908 528 L 188.07536907536908 510.19869448899414 Z" stroke-linejoin="bevel" stroke-miterlimit="10"/><rect fill="#717cbb" stroke="none" x="233.2191142191142" y="510.535532203564" width="40.62937062937067" height="17.464467796435997"/><path fill="none" stroke="white" paint-order="fill stroke markers" d=" M 233.2191142191142 510.535532203564 L 273.8484848484849 510.535532203564 L 273.8484848484849 528 L 233.2191142191142 528 L 233.2191142191142 510.535532203564 Z" stroke-linejoin="bevel" stroke-miterlimit="10"/><rect fill="#89b9df" stroke="none" x="278.36285936285935" y="510.29898886468067" width="40.62937062937067" height="17.701011135319334"/><path fill="none" stroke="white" paint-order="fill stroke markers" d=" M 278.36285936285935 510.29898886468067 L 318.99222999223 510.29898886468067 L 318.99222999223 528 L 278.36285936285935 528 L 278.36285936285935 510.29898886468067 Z" stroke-linejoin="bevel" stroke-miterlimit="10"/><rect fill="#717cbb" stroke="none" x="386.7078477078477" y="493.9491132810631" width="40.62937062937067" height="34.05088671893691"/><path fill="none" stroke="white" paint-order="fill stroke markers" d=" M 386.7078477078477 493.9491132810631 L 427.33721833721836 493.9491132810631 L 427.33721833721836 528 L 386.7078477078477 528 L 386.7078477078477 493.9491132810631 Z" stroke-linejoin="bevel" stroke-miterlimit="10"/><rect fill="#89b9df" stroke="none" x="431.85159285159284" y="494.172410192969" width="40.62937062937067" height="33.82758980703102"/><path fill="none" stroke="white" paint-order="fill stroke markers" d=" M 431.85159285159284 494.172410192969 L 472.4809634809635 494.172410192969 L 472.4809634809635 528 L 431.85159285159284 528 L 431.85159285159284 494.172410192969 Z" stroke-linejoin="bevel" stroke-miterlimit="10"/><rect fill="#717cbb" stroke="none" x="540.1965811965813" y="477.14885918021156" width="40.62937062937044" height="50.85114081978844"/><path fill="none" stroke="white" paint-order="fill stroke markers" d=" M 540.1965811965813 477.14885918021156 L 580.8259518259517 477.14885918021156 L 580.8259518259517 528 L 540.1965811965813 528 L 540.1965811965813 477.14885918021156 Z" stroke-linejoin="bevel" stroke-miterlimit="10"/><rect fill="#89b9df" stroke="none" x="585.3403263403263" y="477.41757241318305" width="40.62937062937067" height="50.58242758681695"/><path fill="none" stroke="white" paint-order="fill stroke markers" d=" M 585.3403263403263 477.41757241318305 L 625.969696969697 477.41757241318305 L 625.969696969697 528 L 585.3403263403263 528 L 585.3403263403263 477.41757241318305 Z" stroke-linejoin="bevel" stroke-miterlimit="10"/><rect fill="#717cbb" stroke="none" x="693.6853146853148" y="460.34198186587133" width="40.62937062937044" height="67.65801813412867"/><path fill="none" stroke="white" paint-order="fill stroke markers" d=" M 693.6853146853148 460.34198186587133 L 734.3146853146852 460.34198186587133 L 734.3146853146852 528 L 693.6853146853148 528 L 693.6853146853148 460.34198186587133 Z" stroke-linejoin="bevel" stroke-miterlimit="10"/><rect fill="#89b9df" stroke="none" x="738.8290598290599" y="461.40879232423526" width="40.62937062937067" height="66.59120767576474"/><path fill="none" stroke="white" paint-order="fill stroke markers" d=" M 738.8290598290599 461.40879232423526 L 779.4584304584306 461.40879232423526 L 779.4584304584306 528 L 738.8290598290599 528 L 738.8290598290599 461.40879232423526 Z" stroke-linejoin="bevel" stroke-miterlimit="10"/><rect fill="#717cbb" stroke="none" x="847.1740481740483" y="397.846522102872" width="40.62937062937044" height="130.15347789712803"/><path fill="none" stroke="white" paint-order="fill stroke markers" d=" M 847.1740481740483 397.846522102872 L 887.8034188034187 397.846522102872 L 887.8034188034187 528 L 847.1740481740483 528 L 847.1740481740483 397.846522102872 Z" stroke-linejoin="bevel" stroke-miterlimit="10"/><rect fill="#89b9df" stroke="none" x="892.3177933177934" y="436.3181672821999" width="40.62937062937067" height="91.68183271780009"/><path fill="none" stroke="white" paint-order="fill stroke markers" d=" M 892.3177933177934 436.3181672821999 L 932.9471639471641 436.3181672821999 L 932.9471639471641 528 L 892.3177933177934 528 L 892.3177933177934 436.3181672821999 Z" stroke-linejoin="bevel" stroke-miterlimit="10"/><rect fill="#717cbb" stroke="none" x="1000.6627816627818" y="363.08541400893773" width="40.62937062937044" height="164.91458599106227"/><path fill="none" stroke="white" paint-order="fill stroke markers" d=" M 1000.6627816627818 363.08541400893773 L 1041.2921522921522 363.08541400893773 L 1041.2921522921522 528 L 1000.6627816627818 528 L 1000.6627816627818 363.08541400893773 Z" stroke-linejoin="bevel" stroke-miterlimit="10"/><rect fill="#89b9df" stroke="none" x="1045.8065268065266" y="361.4824780729947" width="40.6293706293709" height="166.5175219270053"/><path fill="none" stroke="white" paint-order="fill stroke markers" d=" M 1045.8065268065266 361.4824780729947 L 1086.4358974358975 361.4824780729947 L 1086.4358974358975 528 L 1045.8065268065266 528 L 1045.8065268065266 361.4824780729947 Z" stroke-linejoin="bevel" stroke-miterlimit="10"/><rect fill="#717cbb" stroke="none" x="1154.151515151515" y="54.666666666666686" width="40.6293706293709" height="473.3333333333333"/><path fill="none" stroke="white" paint-order="fill stroke markers" d=" M 1154.151515151515 54.666666666666686 L 1194.780885780886 54.666666666666686 L 1194.780885780886 528 L 1154.151515151515 528 L 1154.151515151515 54.666666666666686 Z" stroke-linejoin="bevel" stroke-miterlimit="10"/><rect fill="#89b9df" stroke="none" x="1199.2952602952603" y="218.44531240857629" width="40.62937062937044" height="309.5546875914237"/><path fill="none" stroke="white" paint-order="fill stroke markers" d=" M 1199.2952602952603 218.44531240857629 L 1239.9246309246307 218.44531240857629 L 1239.9246309246307 528 L 1199.2952602952603 528 L 1199.2952602952603 218.44531240857629 Z" stroke-linejoin="bevel" stroke-miterlimit="10"/></g></g></g><g clip-path="url(#TPGhEXVnuxBK)"><g/></g><g><g fill="#444444" stroke="lightgrey" stroke-linejoin="bevel" stroke-miterlimit="10" stroke-width="2"><path fill="none" stroke="black" paint-order="fill stroke markers" d=" M 133 528 L 1295 528" stroke-linejoin="bevel" stroke-miterlimit="10"/><path fill="none" stroke="black" paint-order="fill stroke markers" d=" M 208 534 L 208 526" stroke-linejoin="bevel" stroke-miterlimit="10"/><path fill="none" stroke="black" paint-order="fill stroke markers" d=" M 254 534 L 254 526" stroke-linejoin="bevel" stroke-miterlimit="10"/><path fill="none" stroke="black" paint-order="fill stroke markers" d=" M 299 534 L 299 526" stroke-linejoin="bevel" stroke-miterlimit="10"/><path fill="none" stroke="black" paint-order="fill stroke markers" d=" M 407 534 L 407 526" stroke-linejoin="bevel" stroke-miterlimit="10"/><path fill="none" stroke="black" paint-order="fill stroke markers" d=" M 452 534 L 452 526" stroke-linejoin="bevel" stroke-miterlimit="10"/><path fill="none" stroke="black" paint-order="fill stroke markers" d=" M 561 534 L 561 526" stroke-linejoin="bevel" stroke-miterlimit="10"/><path fill="none" stroke="black" paint-order="fill stroke markers" d=" M 606 534 L 606 526" stroke-linejoin="bevel" stroke-miterlimit="10"/><path fill="none" stroke="black" paint-order="fill stroke markers" d=" M 714 534 L 714 526" stroke-linejoin="bevel" stroke-miterlimit="10"/><path fill="none" stroke="black" paint-order="fill stroke markers" d=" M 759 534 L 759 526" stroke-linejoin="bevel" stroke-miterlimit="10"/><path fill="none" stroke="black" paint-order="fill stroke markers" d=" M 867 534 L 867 526" stroke-linejoin="bevel" stroke-miterlimit="10"/><path fill="none" stroke="black" paint-order="fill stroke markers" d=" M 913 534 L 913 526" stroke-linejoin="bevel" stroke-miterlimit="10"/><path fill="none" stroke="black" paint-order="fill stroke markers" d=" M 1021 534 L 1021 526" stroke-linejoin="bevel" stroke-miterlimit="10"/><path fill="none" stroke="black" paint-order="fill stroke markers" d=" M 1066 534 L 1066 526" stroke-linejoin="bevel" stroke-miterlimit="10"/><path fill="none" stroke="black" paint-order="fill stroke markers" d=" M 1174 534 L 1174 526" stroke-linejoin="bevel" stroke-miterlimit="10"/><path fill="" stroke="" paint-order="fill stroke markers" d=" M 1220 534 L 1220 526" stroke-linejoin="bevel" stroke-miterlimit="10"/><g transform="translate(208,539) rotate(-74.48451336700703,0,0)"><text fill="" stroke="none" font-family="helvetica" font-size="15px" font-style="normal" font-weight="normal" text-decoration="normal" x="0" y="0" text-anchor="end" dominant-baseline="central">Single GPU</text><g transform="rotate(74.48451336700703,0,0) translate(-208,-539) translate(254,539) rotate(-74.48451336700703,0,0)"><text fill="" stroke="none" font-family="helvetica" font-size="15px" font-style="normal" font-weight="normal" text-decoration="normal" x="0" y="0" text-anchor="end" dominant-baseline="central">IntelMPI</text><g transform="rotate(74.48451336700703,0,0) translate(-254,-539) translate(299,539) rotate(-74.48451336700703,0,0)"><text fill="" stroke="none" font-family="helvetica" font-size="15px" font-style="normal" font-weight="normal" text-decoration="normal" x="0" y="0" text-anchor="end" dominant-baseline="central">OpenMPI+NCCL</text><g transform="rotate(74.48451336700703,0,0) translate(-299,-539) translate(407,539) rotate(-74.48451336700703,0,0)"><text fill="" stroke="none" font-family="helvetica" font-size="15px" font-style="normal" font-weight="normal" text-decoration="normal" x="0" y="0" text-anchor="end" dominant-baseline="central">IntelMPI</text><g transform="rotate(74.48451336700703,0,0) translate(-407,-539) translate(452,539) rotate(-74.48451336700703,0,0)"><text fill="" stroke="none" font-family="helvetica" font-size="15px" font-style="normal" font-weight="normal" text-decoration="normal" x="0" y="0" text-anchor="end" dominant-baseline="central">OpenMPI+NCCL</text><g transform="rotate(74.48451336700703,0,0) translate(-452,-539) translate(561,539) rotate(-74.48451336700703,0,0)"><text fill="" stroke="none" font-family="helvetica" font-size="15px" font-style="normal" font-weight="normal" text-decoration="normal" x="0" y="0" text-anchor="end" dominant-baseline="central">IntelMPI</text><g transform="rotate(74.48451336700703,0,0) translate(-561,-539) translate(606,539) rotate(-74.48451336700703,0,0)"><text fill="" stroke="none" font-family="helvetica" font-size="15px" font-style="normal" font-weight="normal" text-decoration="normal" x="0" y="0" text-anchor="end" dominant-baseline="central">OpenMPI+NCCL</text><g transform="rotate(74.48451336700703,0,0) translate(-606,-539) translate(714,539) rotate(-74.48451336700703,0,0)"><text fill="" stroke="none" font-family="helvetica" font-size="15px" font-style="normal" font-weight="normal" text-decoration="normal" x="0" y="0" text-anchor="end" dominant-baseline="central">IntelMPI</text><g transform="rotate(74.48451336700703,0,0) translate(-714,-539) translate(759,539) rotate(-74.48451336700703,0,0)"><text fill="" stroke="none" font-family="helvetica" font-size="15px" font-style="normal" font-weight="normal" text-decoration="normal" x="0" y="0" text-anchor="end" dominant-baseline="central">OpenMPI+NCCL</text><g transform="rotate(74.48451336700703,0,0) translate(-759,-539) translate(867,539) rotate(-74.48451336700703,0,0)"><text fill="" stroke="none" font-family="helvetica" font-size="15px" font-style="normal" font-weight="normal" text-decoration="normal" x="0" y="0" text-anchor="end" dominant-baseline="central">IntelMPI</text><g transform="rotate(74.48451336700703,0,0) translate(-867,-539) translate(913,539) rotate(-74.48451336700703,0,0)"><text fill="" stroke="none" font-family="helvetica" font-size="15px" font-style="normal" font-weight="normal" text-decoration="normal" x="0" y="0" text-anchor="end" dominant-baseline="central">OpenMPI+NCCL</text><g transform="rotate(74.48451336700703,0,0) translate(-913,-539) translate(1021,539) rotate(-74.48451336700703,0,0)"><text fill="" stroke="none" font-family="helvetica" font-size="15px" font-style="normal" font-weight="normal" text-decoration="normal" x="0" y="0" text-anchor="end" dominant-baseline="central">IntelMPI</text><g transform="rotate(74.48451336700703,0,0) translate(-1021,-539) translate(1066,539) rotate(-74.48451336700703,0,0)"><text fill="" stroke="none" font-family="helvetica" font-size="15px" font-style="normal" font-weight="normal" text-decoration="normal" x="0" y="0" text-anchor="end" dominant-baseline="central">OpenMPI+NCCL</text><g transform="rotate(74.48451336700703,0,0) translate(-1066,-539) translate(1174,539) rotate(-74.48451336700703,0,0)"><text fill="" stroke="none" font-family="helvetica" font-size="15px" font-style="normal" font-weight="normal" text-decoration="normal" x="0" y="0" text-anchor="end" dominant-baseline="central">IntelMPI</text><g transform="rotate(74.48451336700703,0,0) translate(-1174,-539) translate(1220,539) rotate(-74.48451336700703,0,0)"><text fill="" stroke="none" font-family="helvetica" font-size="15px" font-style="normal" font-weight="normal" text-decoration="normal" x="0" y="0" text-anchor="end" dominant-baseline="central">OpenMPI+NCCL</text><g transform="rotate(74.48451336700703,0,0) translate(-1220,-539) translate(254,738) rotate(0,0,0)"><text fill="" stroke="none" font-family="helvetica" font-size="20px" font-style="normal" font-weight="bold" text-decoration="normal" x="0" y="0" text-anchor="middle" dominant-baseline="hanging">1</text><g transform="rotate(0,0,0) translate(-254,-738) translate(430,738) rotate(0,0,0)"><text fill="" stroke="none" font-family="helvetica" font-size="20px" font-style="normal" font-weight="bold" text-decoration="normal" x="0" y="0" text-anchor="middle" dominant-baseline="hanging">2</text><g transform="rotate(0,0,0) translate(-430,-738) translate(583,738) rotate(0,0,0)"><text fill="" stroke="none" font-family="helvetica" font-size="20px" font-style="normal" font-weight="bold" text-decoration="normal" x="0" y="0" text-anchor="middle" dominant-baseline="hanging">3</text><g transform="rotate(0,0,0) translate(-583,-738) translate(737,738) rotate(0,0,0)"><text fill="" stroke="none" font-family="helvetica" font-size="20px" font-style="normal" font-weight="bold" text-decoration="normal" x="0" y="0" text-anchor="middle" dominant-baseline="hanging">4</text><g transform="rotate(0,0,0) translate(-737,-738) translate(890,738) rotate(0,0,0)"><text fill="" stroke="none" font-family="helvetica" font-size="20px" font-style="normal" font-weight="bold" text-decoration="normal" x="0" y="0" text-anchor="middle" dominant-baseline="hanging">8</text><g transform="rotate(0,0,0) translate(-890,-738) translate(1044,738) rotate(0,0,0)"><text fill="" stroke="none" font-family="helvetica" font-size="20px" font-style="normal" font-weight="bold" text-decoration="normal" x="0" y="0" text-anchor="middle" dominant-baseline="hanging">16</text><g transform="rotate(0,0,0) translate(-1044,-738) translate(1197,738) rotate(0,0,0)"><text fill="" stroke="none" font-family="helvetica" font-size="20px" font-style="normal" font-weight="bold" text-decoration="normal" x="0" y="0" text-anchor="middle" dominant-baseline="hanging">32</text><g transform="rotate(0,0,0) translate(-1197,-738) translate(714,771) rotate(0,0,0)"><text fill="" stroke="none" font-family="helvetica" font-size="20px" font-style="italic" font-weight="normal" text-decoration="normal" x="0" y="0" text-anchor="middle" dominant-baseline="hanging">Number of GPUs</text><g transform="rotate(0,0,0) translate(-714,-771)"><path fill="none" stroke="" paint-order="fill stroke markers" d=" M 353 754 L 353 531"/><path fill="none" stroke="" paint-order="fill stroke markers" d=" M 506 754 L 506 531"/><path fill="none" stroke="" paint-order="fill stroke markers" d=" M 660 754 L 660 531"/><path fill="none" stroke="" paint-order="fill stroke markers" d=" M 813 754 L 813 531"/><path fill="none" stroke="" paint-order="fill stroke markers" d=" M 967 754 L 967 531"/><path fill="none" stroke="" paint-order="fill stroke markers" d=" M 1120 754 L 1120 531"/></g></g></g></g></g></g></g></g></g></g></g></g></g></g></g></g></g></g></g></g></g></g></g></g></g><g fill="#444444"><path fill="none" stroke="black" paint-order="fill stroke markers" d=" M 133 528 L 133 31" stroke-linejoin="bevel" stroke-miterlimit="10"/><path fill="none" stroke="black" paint-order="fill stroke markers" d=" M 127 528 L 135 528" stroke-linejoin="bevel" stroke-miterlimit="10"/><path fill="none" stroke="black" paint-order="fill stroke markers" d=" M 127 433 L 135 433" stroke-linejoin="bevel" stroke-miterlimit="10"/><path fill="none" stroke="black" paint-order="fill stroke markers" d=" M 127 339 L 135 339" stroke-linejoin="bevel" stroke-miterlimit="10"/><path fill="none" stroke="black" paint-order="fill stroke markers" d=" M 127 244 L 135 244" stroke-linejoin="bevel" stroke-miterlimit="10"/><path fill="none" stroke="black" paint-order="fill stroke markers" d=" M 127 150 L 135 150" stroke-linejoin="bevel" stroke-miterlimit="10"/><path fill="none" stroke="black" paint-order="fill stroke markers" d=" M 127 55 L 135 55" stroke-linejoin="bevel" stroke-miterlimit="10"/><path fill="none" stroke="black" paint-order="fill stroke markers" d=" M 129 528 L 133 528" stroke-linejoin="bevel" stroke-miterlimit="10"/><path fill="none" stroke="black" paint-order="fill stroke markers" d=" M 129 509 L 133 509" stroke-linejoin="bevel" stroke-miterlimit="10"/><path fill="none" stroke="black" paint-order="fill stroke markers" d=" M 129 490 L 133 490" stroke-linejoin="bevel" stroke-miterlimit="10"/><path fill="none" stroke="black" paint-order="fill stroke markers" d=" M 129 471 L 133 471" stroke-linejoin="bevel" stroke-miterlimit="10"/><path fill="none" stroke="black" paint-order="fill stroke markers" d=" M 129 452 L 133 452" stroke-linejoin="bevel" stroke-miterlimit="10"/><path fill="none" stroke="black" paint-order="fill stroke markers" d=" M 129 433 L 133 433" stroke-linejoin="bevel" stroke-miterlimit="10"/><path fill="none" stroke="black" paint-order="fill stroke markers" d=" M 129 414 L 133 414" stroke-linejoin="bevel" stroke-miterlimit="10"/><path fill="none" stroke="black" paint-order="fill stroke markers" d=" M 129 396 L 133 396" stroke-linejoin="bevel" stroke-miterlimit="10"/><path fill="none" stroke="black" paint-order="fill stroke markers" d=" M 129 377 L 133 377" stroke-linejoin="bevel" stroke-miterlimit="10"/><path fill="none" stroke="black" paint-order="fill stroke markers" d=" M 129 358 L 133 358" stroke-linejoin="bevel" stroke-miterlimit="10"/><path fill="none" stroke="black" paint-order="fill stroke markers" d=" M 129 339 L 133 339" stroke-linejoin="bevel" stroke-miterlimit="10"/><path fill="none" stroke="black" paint-order="fill stroke markers" d=" M 129 320 L 133 320" stroke-linejoin="bevel" stroke-miterlimit="10"/><path fill="none" stroke="black" paint-order="fill stroke markers" d=" M 129 301 L 133 301" stroke-linejoin="bevel" stroke-miterlimit="10"/><path fill="none" stroke="black" paint-order="fill stroke markers" d=" M 129 282 L 133 282" stroke-linejoin="bevel" stroke-miterlimit="10"/><path fill="none" stroke="black" paint-order="fill stroke markers" d=" M 129 263 L 133 263" stroke-linejoin="bevel" stroke-miterlimit="10"/><path fill="none" stroke="black" paint-order="fill stroke markers" d=" M 129 244 L 133 244" stroke-linejoin="bevel" stroke-miterlimit="10"/><path fill="none" stroke="black" paint-order="fill stroke markers" d=" M 129 225 L 133 225" stroke-linejoin="bevel" stroke-miterlimit="10"/><path fill="none" stroke="black" paint-order="fill stroke markers" d=" M 129 206 L 133 206" stroke-linejoin="bevel" stroke-miterlimit="10"/><path fill="none" stroke="black" paint-order="fill stroke markers" d=" M 129 187 L 133 187" stroke-linejoin="bevel" stroke-miterlimit="10"/><path fill="none" stroke="black" paint-order="fill stroke markers" d=" M 129 168 L 133 168" stroke-linejoin="bevel" stroke-miterlimit="10"/><path fill="none" stroke="black" paint-order="fill stroke markers" d=" M 129 150 L 133 150" stroke-linejoin="bevel" stroke-miterlimit="10"/><path fill="none" stroke="black" paint-order="fill stroke markers" d=" M 129 131 L 133 131" stroke-linejoin="bevel" stroke-miterlimit="10"/><path fill="none" stroke="black" paint-order="fill stroke markers" d=" M 129 112 L 133 112" stroke-linejoin="bevel" stroke-miterlimit="10"/><path fill="none" stroke="black" paint-order="fill stroke markers" d=" M 129 93 L 133 93" stroke-linejoin="bevel" stroke-miterlimit="10"/><path fill="none" stroke="black" paint-order="fill stroke markers" d=" M 129 74 L 133 74" stroke-linejoin="bevel" stroke-miterlimit="10"/><path fill="none" stroke="black" paint-order="fill stroke markers" d=" M 129 55 L 133 55" stroke-linejoin="bevel" stroke-miterlimit="10"/><path fill="" stroke="black" paint-order="fill stroke markers" d=" M 129 36 L 133 36" stroke-linejoin="bevel" stroke-miterlimit="10"/><g transform="translate(122,528) rotate(0,0,0)"><text fill="" stroke="none" font-family="helvetica" font-size="20px" font-style="normal" font-weight="normal" text-decoration="normal" x="0" y="0" text-anchor="end" dominant-baseline="central">0</text><g transform="rotate(0,0,0) translate(-122,-528) translate(122,433) rotate(0,0,0)"><text fill="" stroke="none" font-family="helvetica" font-size="20px" font-style="normal" font-weight="normal" text-decoration="normal" x="0" y="0" text-anchor="end" dominant-baseline="central">500</text><g transform="rotate(0,0,0) translate(-122,-433) translate(122,339) rotate(0,0,0)"><text fill="" stroke="none" font-family="helvetica" font-size="20px" font-style="normal" font-weight="normal" text-decoration="normal" x="0" y="0" text-anchor="end" dominant-baseline="central">1000</text><g transform="rotate(0,0,0) translate(-122,-339) translate(122,244) rotate(0,0,0)"><text fill="" stroke="none" font-family="helvetica" font-size="20px" font-style="normal" font-weight="normal" text-decoration="normal" x="0" y="0" text-anchor="end" dominant-baseline="central">1500</text><g transform="rotate(0,0,0) translate(-122,-244) translate(122,150) rotate(0,0,0)"><text fill="" stroke="none" font-family="helvetica" font-size="20px" font-style="normal" font-weight="normal" text-decoration="normal" x="0" y="0" text-anchor="end" dominant-baseline="central">2000</text><g transform="rotate(0,0,0) translate(-122,-150) translate(122,55) rotate(0,0,0)"><text fill="" stroke="none" font-family="helvetica" font-size="20px" font-style="normal" font-weight="normal" text-decoration="normal" x="0" y="0" text-anchor="end" dominant-baseline="central">2500</text><g transform="rotate(0,0,0) translate(-122,-55) translate(29,280) rotate(-90,0,0)"><text fill="" stroke="none" font-family="helvetica" font-size="20px" font-style="italic" font-weight="normal" text-decoration="normal" x="0" y="0" text-anchor="middle" dominant-baseline="alphabetic">Images/Second</text><g transform="rotate(90,0,0) translate(-29,-280)"/></g></g></g></g></g></g></g></g><g/><g><path fill="#ffffff" stroke="#e5e5e5" paint-order="fill stroke markers" d=" M 1295 36 L 1580 36 L 1580 128 L 1295 128 L 1295 36 Z" fill-opacity="0.95" stroke-linejoin="bevel" stroke-miterlimit="10" stroke-opacity="0.5"/><text fill="#444444" stroke="none" font-family="helvetica" font-size="20px" font-style="normal" font-weight="normal" text-decoration="normal" x="1330" y="57" text-anchor="start" dominant-baseline="central">Single GPU</text><rect fill="#8a4b9a" stroke="none" x="1307" y="48" width="16" height="16"/><path fill="none" stroke="white" paint-order="fill stroke markers" d=" M 1307 48 L 1323 48 L 1323 64 L 1307 64 L 1307 48 Z" stroke-linejoin="bevel" stroke-miterlimit="10"/><text fill="#444444" stroke="none" font-family="helvetica" font-size="20px" font-style="normal" font-weight="normal" text-decoration="normal" x="1330" y="82" text-anchor="start" dominant-baseline="central">IntelMPI</text><rect fill="#717cbb" stroke="none" x="1307" y="73" width="16" height="16"/><path fill="none" stroke="white" paint-order="fill stroke markers" d=" M 1307 73 L 1323 73 L 1323 89 L 1307 89 L 1307 73 Z" stroke-linejoin="bevel" stroke-miterlimit="10"/><text fill="#444444" stroke="none" font-family="helvetica" font-size="20px" font-style="normal" font-weight="normal" text-decoration="normal" x="1330" y="107" text-anchor="start" dominant-baseline="central">OpenMPI+NCCL</text><rect fill="#89b9df" stroke="none" x="1307" y="98" width="16" height="16"/><path fill="none" stroke="white" paint-order="fill stroke markers" d=" M 1307 98 L 1323 98 L 1323 114 L 1307 114 L 1307 98 Z" stroke-linejoin="bevel" stroke-miterlimit="10"/></g><g fill="#444444"><path fill="" stroke="none" d=""/><g transform="translate(133,26)"><path fill="none" stroke="none"/><text fill="" stroke="none" font-family="helvetica" font-size="10pt" font-style="normal" font-weight="bold" text-decoration="normal" x="0" y="0" text-anchor="start" dominant-baseline="text-after-edge">Training throughput for ResNet50 with synthetic data (p100)</text></g></g></g></g></g></svg>