<svg version="1.1" xmlns="http://www.w3.org/2000/svg" width="1600" height="800" style="width: 1600px; height: 800px;"><defs><clipPath id="qTqUzdTJUvXX"><path fill="none" stroke="none" d=" M 133 31 L 1295 31 L 1295 528 L 133 528 L 133 31 Z"/></clipPath><clipPath id="EwzTHDvgqaQn"><path fill="none" stroke="none" d=" M 133 31 L 1295 31 L 1295 528 L 133 528 L 133 31 Z"/></clipPath></defs><g><g/><g/><g/><g transform="scale(1,1) translate(0.5,0.5)"><rect fill="#FFFFFF" stroke="none" x="0" y="0" width="1600" height="800"/><rect fill="#ffffff" stroke="none" x="0" y="0" width="1600" height="800"/><rect fill="#FFFFFF" stroke="none" x="133" y="31" width="1162" height="497"/><rect fill="#ffffff" stroke="none" x="133" y="31" width="1162" height="497"/><g><rect fill="none" stroke="#e5e5e5" x="133" y="31" width="1162" height="497" stroke-linejoin="bevel" stroke-miterlimit="10"/></g><g clip-path="url(#qTqUzdTJUvXX)"><g><g/><g><path fill="none" stroke="#e5e5e5" paint-order="fill stroke markers" d=" M 133 455 L 1295 455" stroke-linejoin="bevel" stroke-miterlimit="10"/><path fill="none" stroke="#e5e5e5" paint-order="fill stroke markers" d=" M 133 383 L 1295 383" stroke-linejoin="bevel" stroke-miterlimit="10"/><path fill="none" stroke="#e5e5e5" paint-order="fill stroke markers" d=" M 133 310 L 1295 310" stroke-linejoin="bevel" stroke-miterlimit="10"/><path fill="none" stroke="#e5e5e5" paint-order="fill stroke markers" d=" M 133 237 L 1295 237" stroke-linejoin="bevel" stroke-miterlimit="10"/><path fill="none" stroke="#e5e5e5" paint-order="fill stroke markers" d=" M 133 165 L 1295 165" stroke-linejoin="bevel" stroke-miterlimit="10"/><path fill="none" stroke="#e5e5e5" paint-order="fill stroke markers" d=" M 133 92 L 1295 92" stroke-linejoin="bevel" stroke-miterlimit="10"/></g><g><path fill="none" stroke="none"/><rect fill="#8a4b9a" stroke="none" x="188.07536907536908" y="502.04168244364604" width="40.62937062937061" height="25.95831755635396"/><path fill="none" stroke="white" paint-order="fill stroke markers" d=" M 188.07536907536908 502.04168244364604 L 228.7047397047397 502.04168244364604 L 228.7047397047397 528 L 188.07536907536908 528 L 188.07536907536908 502.04168244364604 Z" stroke-linejoin="bevel" stroke-miterlimit="10"/><rect fill="#717cbb" stroke="none" x="233.2191142191142" y="503.6106636195746" width="40.62937062937067" height="24.38933638042539"/><path fill="none" stroke="white" paint-order="fill stroke markers" d=" M 233.2191142191142 503.6106636195746 L 273.8484848484849 503.6106636195746 L 273.8484848484849 528 L 233.2191142191142 528 L 233.2191142191142 503.6106636195746 Z" stroke-linejoin="bevel" stroke-miterlimit="10"/><rect fill="#89b9df" stroke="none" x="278.36285936285935" y="502.60561453837533" width="40.62937062937067" height="25.394385461624665"/><path fill="none" stroke="white" paint-order="fill stroke markers" d=" M 278.36285936285935 502.60561453837533 L 318.99222999223 502.60561453837533 L 318.99222999223 528 L 278.36285936285935 528 L 278.36285936285935 502.60561453837533 Z" stroke-linejoin="bevel" stroke-miterlimit="10"/><rect fill="#717cbb" stroke="none" x="386.7078477078477" y="479.4575101396479" width="40.62937062937067" height="48.54248986035208"/><path fill="none" stroke="white" paint-order="fill stroke markers" d=" M 386.7078477078477 479.4575101396479 L 427.33721833721836 479.4575101396479 L 427.33721833721836 528 L 386.7078477078477 528 L 386.7078477078477 479.4575101396479 Z" stroke-linejoin="bevel" stroke-miterlimit="10"/><rect fill="#89b9df" stroke="none" x="431.85159285159284" y="479.0287473356656" width="40.62937062937067" height="48.97125266433437"/><path fill="none" stroke="white" paint-order="fill stroke markers" d=" M 431.85159285159284 479.0287473356656 L 472.4809634809635 479.0287473356656 L 472.4809634809635 528 L 431.85159285159284 528 L 431.85159285159284 479.0287473356656 Z" stroke-linejoin="bevel" stroke-miterlimit="10"/><rect fill="#717cbb" stroke="none" x="540.1965811965813" y="471.8359485002716" width="40.62937062937044" height="56.16405149972837"/><path fill="none" stroke="white" paint-order="fill stroke markers" d=" M 540.1965811965813 471.8359485002716 L 580.8259518259517 471.8359485002716 L 580.8259518259517 528 L 540.1965811965813 528 L 540.1965811965813 471.8359485002716 Z" stroke-linejoin="bevel" stroke-miterlimit="10"/><rect fill="#89b9df" stroke="none" x="585.3403263403263" y="458.89457898617445" width="40.62937062937067" height="69.10542101382555"/><path fill="none" stroke="white" paint-order="fill stroke markers" d=" M 585.3403263403263 458.89457898617445 L 625.969696969697 458.89457898617445 L 625.969696969697 528 L 585.3403263403263 528 L 585.3403263403263 458.89457898617445 Z" stroke-linejoin="bevel" stroke-miterlimit="10"/><rect fill="#717cbb" stroke="none" x="693.6853146853148" y="456.8548065619184" width="40.62937062937044" height="71.1451934380816"/><path fill="none" stroke="white" paint-order="fill stroke markers" d=" M 693.6853146853148 456.8548065619184 L 734.3146853146852 456.8548065619184 L 734.3146853146852 528 L 693.6853146853148 528 L 693.6853146853148 456.8548065619184 Z" stroke-linejoin="bevel" stroke-miterlimit="10"/><rect fill="#89b9df" stroke="none" x="738.8290598290599" y="437.6395108148035" width="40.62937062937067" height="90.36048918519651"/><path fill="none" stroke="white" paint-order="fill stroke markers" d=" M 738.8290598290599 437.6395108148035 L 779.4584304584306 437.6395108148035 L 779.4584304584306 528 L 738.8290598290599 528 L 738.8290598290599 437.6395108148035 Z" stroke-linejoin="bevel" stroke-miterlimit="10"/><rect fill="#717cbb" stroke="none" x="847.1740481740483" y="396.5560403105101" width="40.62937062937044" height="131.44395968948987"/><path fill="none" stroke="white" paint-order="fill stroke markers" d=" M 847.1740481740483 396.5560403105101 L 887.8034188034187 396.5560403105101 L 887.8034188034187 528 L 847.1740481740483 528 L 847.1740481740483 396.5560403105101 Z" stroke-linejoin="bevel" stroke-miterlimit="10"/><rect fill="#89b9df" stroke="none" x="892.3177933177934" y="437.3897928173146" width="40.62937062937067" height="90.61020718268537"/><path fill="none" stroke="white" paint-order="fill stroke markers" d=" M 892.3177933177934 437.3897928173146 L 932.9471639471641 437.3897928173146 L 932.9471639471641 528 L 892.3177933177934 528 L 892.3177933177934 437.3897928173146 Z" stroke-linejoin="bevel" stroke-miterlimit="10"/><rect fill="#717cbb" stroke="none" x="1000.6627816627818" y="280.61371819631233" width="40.62937062937044" height="247.38628180368767"/><path fill="none" stroke="white" paint-order="fill stroke markers" d=" M 1000.6627816627818 280.61371819631233 L 1041.2921522921522 280.61371819631233 L 1041.2921522921522 528 L 1000.6627816627818 528 L 1000.6627816627818 280.61371819631233 Z" stroke-linejoin="bevel" stroke-miterlimit="10"/><rect fill="#89b9df" stroke="none" x="1045.8065268065266" y="367.42351541103017" width="40.6293706293709" height="160.57648458896983"/><path fill="none" stroke="white" paint-order="fill stroke markers" d=" M 1045.8065268065266 367.42351541103017 L 1086.4358974358975 367.42351541103017 L 1086.4358974358975 528 L 1045.8065268065266 528 L 1045.8065268065266 367.42351541103017 Z" stroke-linejoin="bevel" stroke-miterlimit="10"/><rect fill="#717cbb" stroke="none" x="1154.151515151515" y="54.666666666666686" width="40.6293706293709" height="473.3333333333333"/><path fill="none" stroke="white" paint-order="fill stroke markers" d=" M 1154.151515151515 54.666666666666686 L 1194.780885780886 54.666666666666686 L 1194.780885780886 528 L 1154.151515151515 528 L 1154.151515151515 54.666666666666686 Z" stroke-linejoin="bevel" stroke-miterlimit="10"/><rect fill="#89b9df" stroke="none" x="1199.2952602952603" y="217.81384315830525" width="40.62937062937044" height="310.18615684169475"/><path fill="none" stroke="white" paint-order="fill stroke markers" d=" M 1199.2952602952603 217.81384315830525 L 1239.9246309246307 217.81384315830525 L 1239.9246309246307 528 L 1199.2952602952603 528 L 1199.2952602952603 217.81384315830525 Z" stroke-linejoin="bevel" stroke-miterlimit="10"/></g></g></g><g clip-path="url(#EwzTHDvgqaQn)"><g/></g><g><g fill="#444444" stroke="lightgrey" stroke-linejoin="bevel" stroke-miterlimit="10" stroke-width="2"><path fill="none" stroke="black" paint-order="fill stroke markers" d=" M 133 528 L 1295 528" stroke-linejoin="bevel" stroke-miterlimit="10"/><path fill="none" stroke="black" paint-order="fill stroke markers" d=" M 208 534 L 208 526" stroke-linejoin="bevel" stroke-miterlimit="10"/><path fill="none" stroke="black" paint-order="fill stroke markers" d=" M 254 534 L 254 526" stroke-linejoin="bevel" stroke-miterlimit="10"/><path fill="none" stroke="black" paint-order="fill stroke markers" d=" M 299 534 L 299 526" stroke-linejoin="bevel" stroke-miterlimit="10"/><path fill="none" stroke="black" paint-order="fill stroke markers" d=" M 407 534 L 407 526" stroke-linejoin="bevel" stroke-miterlimit="10"/><path fill="none" stroke="black" paint-order="fill stroke markers" d=" M 452 534 L 452 526" stroke-linejoin="bevel" stroke-miterlimit="10"/><path fill="none" stroke="black" paint-order="fill stroke markers" d=" M 561 534 L 561 526" stroke-linejoin="bevel" stroke-miterlimit="10"/><path fill="none" stroke="black" paint-order="fill stroke markers" d=" M 606 534 L 606 526" stroke-linejoin="bevel" stroke-miterlimit="10"/><path fill="none" stroke="black" paint-order="fill stroke markers" d=" M 714 534 L 714 526" stroke-linejoin="bevel" stroke-miterlimit="10"/><path fill="none" stroke="black" paint-order="fill stroke markers" d=" M 759 534 L 759 526" stroke-linejoin="bevel" stroke-miterlimit="10"/><path fill="none" stroke="black" paint-order="fill stroke markers" d=" M 867 534 L 867 526" stroke-linejoin="bevel" stroke-miterlimit="10"/><path fill="none" stroke="black" paint-order="fill stroke markers" d=" M 913 534 L 913 526" stroke-linejoin="bevel" stroke-miterlimit="10"/><path fill="none" stroke="black" paint-order="fill stroke markers" d=" M 1021 534 L 1021 526" stroke-linejoin="bevel" stroke-miterlimit="10"/><path fill="none" stroke="black" paint-order="fill stroke markers" d=" M 1066 534 L 1066 526" stroke-linejoin="bevel" stroke-miterlimit="10"/><path fill="none" stroke="black" paint-order="fill stroke markers" d=" M 1174 534 L 1174 526" stroke-linejoin="bevel" stroke-miterlimit="10"/><path fill="" stroke="" paint-order="fill stroke markers" d=" M 1220 534 L 1220 526" stroke-linejoin="bevel" stroke-miterlimit="10"/><g transform="translate(208,539) rotate(-74.48451336700703,0,0)"><text fill="" stroke="none" font-family="helvetica" font-size="15px" font-style="normal" font-weight="normal" text-decoration="normal" x="0" y="0" text-anchor="end" dominant-baseline="central">Single GPU</text><g transform="rotate(74.48451336700703,0,0) translate(-208,-539) translate(254,539) rotate(-74.48451336700703,0,0)"><text fill="" stroke="none" font-family="helvetica" font-size="15px" font-style="normal" font-weight="normal" text-decoration="normal" x="0" y="0" text-anchor="end" dominant-baseline="central">IntelMPI</text><g transform="rotate(74.48451336700703,0,0) translate(-254,-539) translate(299,539) rotate(-74.48451336700703,0,0)"><text fill="" stroke="none" font-family="helvetica" font-size="15px" font-style="normal" font-weight="normal" text-decoration="normal" x="0" y="0" text-anchor="end" dominant-baseline="central">OpenMPI+NCCL</text><g transform="rotate(74.48451336700703,0,0) translate(-299,-539) translate(407,539) rotate(-74.48451336700703,0,0)"><text fill="" stroke="none" font-family="helvetica" font-size="15px" font-style="normal" font-weight="normal" text-decoration="normal" x="0" y="0" text-anchor="end" dominant-baseline="central">IntelMPI</text><g transform="rotate(74.48451336700703,0,0) translate(-407,-539) translate(452,539) rotate(-74.48451336700703,0,0)"><text fill="" stroke="none" font-family="helvetica" font-size="15px" font-style="normal" font-weight="normal" text-decoration="normal" x="0" y="0" text-anchor="end" dominant-baseline="central">OpenMPI+NCCL</text><g transform="rotate(74.48451336700703,0,0) translate(-452,-539) translate(561,539) rotate(-74.48451336700703,0,0)"><text fill="" stroke="none" font-family="helvetica" font-size="15px" font-style="normal" font-weight="normal" text-decoration="normal" x="0" y="0" text-anchor="end" dominant-baseline="central">IntelMPI</text><g transform="rotate(74.48451336700703,0,0) translate(-561,-539) translate(606,539) rotate(-74.48451336700703,0,0)"><text fill="" stroke="none" font-family="helvetica" font-size="15px" font-style="normal" font-weight="normal" text-decoration="normal" x="0" y="0" text-anchor="end" dominant-baseline="central">OpenMPI+NCCL</text><g transform="rotate(74.48451336700703,0,0) translate(-606,-539) translate(714,539) rotate(-74.48451336700703,0,0)"><text fill="" stroke="none" font-family="helvetica" font-size="15px" font-style="normal" font-weight="normal" text-decoration="normal" x="0" y="0" text-anchor="end" dominant-baseline="central">IntelMPI</text><g transform="rotate(74.48451336700703,0,0) translate(-714,-539) translate(759,539) rotate(-74.48451336700703,0,0)"><text fill="" stroke="none" font-family="helvetica" font-size="15px" font-style="normal" font-weight="normal" text-decoration="normal" x="0" y="0" text-anchor="end" dominant-baseline="central">OpenMPI+NCCL</text><g transform="rotate(74.48451336700703,0,0) translate(-759,-539) translate(867,539) rotate(-74.48451336700703,0,0)"><text fill="" stroke="none" font-family="helvetica" font-size="15px" font-style="normal" font-weight="normal" text-decoration="normal" x="0" y="0" text-anchor="end" dominant-baseline="central">IntelMPI</text><g transform="rotate(74.48451336700703,0,0) translate(-867,-539) translate(913,539) rotate(-74.48451336700703,0,0)"><text fill="" stroke="none" font-family="helvetica" font-size="15px" font-style="normal" font-weight="normal" text-decoration="normal" x="0" y="0" text-anchor="end" dominant-baseline="central">OpenMPI+NCCL</text><g transform="rotate(74.48451336700703,0,0) translate(-913,-539) translate(1021,539) rotate(-74.48451336700703,0,0)"><text fill="" stroke="none" font-family="helvetica" font-size="15px" font-style="normal" font-weight="normal" text-decoration="normal" x="0" y="0" text-anchor="end" dominant-baseline="central">IntelMPI</text><g transform="rotate(74.48451336700703,0,0) translate(-1021,-539) translate(1066,539) rotate(-74.48451336700703,0,0)"><text fill="" stroke="none" font-family="helvetica" font-size="15px" font-style="normal" font-weight="normal" text-decoration="normal" x="0" y="0" text-anchor="end" dominant-baseline="central">OpenMPI+NCCL</text><g transform="rotate(74.48451336700703,0,0) translate(-1066,-539) translate(1174,539) rotate(-74.48451336700703,0,0)"><text fill="" stroke="none" font-family="helvetica" font-size="15px" font-style="normal" font-weight="normal" text-decoration="normal" x="0" y="0" text-anchor="end" dominant-baseline="central">IntelMPI</text><g transform="rotate(74.48451336700703,0,0) translate(-1174,-539) translate(1220,539) rotate(-74.48451336700703,0,0)"><text fill="" stroke="none" font-family="helvetica" font-size="15px" font-style="normal" font-weight="normal" text-decoration="normal" x="0" y="0" text-anchor="end" dominant-baseline="central">OpenMPI+NCCL</text><g transform="rotate(74.48451336700703,0,0) translate(-1220,-539) translate(254,738) rotate(0,0,0)"><text fill="" stroke="none" font-family="helvetica" font-size="20px" font-style="normal" font-weight="bold" text-decoration="normal" x="0" y="0" text-anchor="middle" dominant-baseline="hanging">1</text><g transform="rotate(0,0,0) translate(-254,-738) translate(430,738) rotate(0,0,0)"><text fill="" stroke="none" font-family="helvetica" font-size="20px" font-style="normal" font-weight="bold" text-decoration="normal" x="0" y="0" text-anchor="middle" dominant-baseline="hanging">2</text><g transform="rotate(0,0,0) translate(-430,-738) translate(583,738) rotate(0,0,0)"><text fill="" stroke="none" font-family="helvetica" font-size="20px" font-style="normal" font-weight="bold" text-decoration="normal" x="0" y="0" text-anchor="middle" dominant-baseline="hanging">3</text><g transform="rotate(0,0,0) translate(-583,-738) translate(737,738) rotate(0,0,0)"><text fill="" stroke="none" font-family="helvetica" font-size="20px" font-style="normal" font-weight="bold" text-decoration="normal" x="0" y="0" text-anchor="middle" dominant-baseline="hanging">4</text><g transform="rotate(0,0,0) translate(-737,-738) translate(890,738) rotate(0,0,0)"><text fill="" stroke="none" font-family="helvetica" font-size="20px" font-style="normal" font-weight="bold" text-decoration="normal" x="0" y="0" text-anchor="middle" dominant-baseline="hanging">8</text><g transform="rotate(0,0,0) translate(-890,-738) translate(1044,738) rotate(0,0,0)"><text fill="" stroke="none" font-family="helvetica" font-size="20px" font-style="normal" font-weight="bold" text-decoration="normal" x="0" y="0" text-anchor="middle" dominant-baseline="hanging">16</text><g transform="rotate(0,0,0) translate(-1044,-738) translate(1197,738) rotate(0,0,0)"><text fill="" stroke="none" font-family="helvetica" font-size="20px" font-style="normal" font-weight="bold" text-decoration="normal" x="0" y="0" text-anchor="middle" dominant-baseline="hanging">32</text><g transform="rotate(0,0,0) translate(-1197,-738) translate(714,771) rotate(0,0,0)"><text fill="" stroke="none" font-family="helvetica" font-size="20px" font-style="italic" font-weight="normal" text-decoration="normal" x="0" y="0" text-anchor="middle" dominant-baseline="hanging">Number of GPUs</text><g transform="rotate(0,0,0) translate(-714,-771)"><path fill="none" stroke="" paint-order="fill stroke markers" d=" M 353 754 L 353 531"/><path fill="none" stroke="" paint-order="fill stroke markers" d=" M 506 754 L 506 531"/><path fill="none" stroke="" paint-order="fill stroke markers" d=" M 660 754 L 660 531"/><path fill="none" stroke="" paint-order="fill stroke markers" d=" M 813 754 L 813 531"/><path fill="none" stroke="" paint-order="fill stroke markers" d=" M 967 754 L 967 531"/><path fill="none" stroke="" paint-order="fill stroke markers" d=" M 1120 754 L 1120 531"/></g></g></g></g></g></g></g></g></g></g></g></g></g></g></g></g></g></g></g></g></g></g></g></g></g><g fill="#444444"><path fill="none" stroke="black" paint-order="fill stroke markers" d=" M 133 528 L 133 31" stroke-linejoin="bevel" stroke-miterlimit="10"/><path fill="none" stroke="black" paint-order="fill stroke markers" d=" M 127 528 L 135 528" stroke-linejoin="bevel" stroke-miterlimit="10"/><path fill="none" stroke="black" paint-order="fill stroke markers" d=" M 127 455 L 135 455" stroke-linejoin="bevel" stroke-miterlimit="10"/><path fill="none" stroke="black" paint-order="fill stroke markers" d=" M 127 383 L 135 383" stroke-linejoin="bevel" stroke-miterlimit="10"/><path fill="none" stroke="black" paint-order="fill stroke markers" d=" M 127 310 L 135 310" stroke-linejoin="bevel" stroke-miterlimit="10"/><path fill="none" stroke="black" paint-order="fill stroke markers" d=" M 127 237 L 135 237" stroke-linejoin="bevel" stroke-miterlimit="10"/><path fill="none" stroke="black" paint-order="fill stroke markers" d=" M 127 165 L 135 165" stroke-linejoin="bevel" stroke-miterlimit="10"/><path fill="none" stroke="black" paint-order="fill stroke markers" d=" M 127 92 L 135 92" stroke-linejoin="bevel" stroke-miterlimit="10"/><path fill="none" stroke="black" paint-order="fill stroke markers" d=" M 129 528 L 133 528" stroke-linejoin="bevel" stroke-miterlimit="10"/><path fill="none" stroke="black" paint-order="fill stroke markers" d=" M 129 513 L 133 513" stroke-linejoin="bevel" stroke-miterlimit="10"/><path fill="none" stroke="black" paint-order="fill stroke markers" d=" M 129 499 L 133 499" stroke-linejoin="bevel" stroke-miterlimit="10"/><path fill="none" stroke="black" paint-order="fill stroke markers" d=" M 129 484 L 133 484" stroke-linejoin="bevel" stroke-miterlimit="10"/><path fill="none" stroke="black" paint-order="fill stroke markers" d=" M 129 470 L 133 470" stroke-linejoin="bevel" stroke-miterlimit="10"/><path fill="none" stroke="black" paint-order="fill stroke markers" d=" M 129 455 L 133 455" stroke-linejoin="bevel" stroke-miterlimit="10"/><path fill="none" stroke="black" paint-order="fill stroke markers" d=" M 129 441 L 133 441" stroke-linejoin="bevel" stroke-miterlimit="10"/><path fill="none" stroke="black" paint-order="fill stroke markers" d=" M 129 426 L 133 426" stroke-linejoin="bevel" stroke-miterlimit="10"/><path fill="none" stroke="black" paint-order="fill stroke markers" d=" M 129 412 L 133 412" stroke-linejoin="bevel" stroke-miterlimit="10"/><path fill="none" stroke="black" paint-order="fill stroke markers" d=" M 129 397 L 133 397" stroke-linejoin="bevel" stroke-miterlimit="10"/><path fill="none" stroke="black" paint-order="fill stroke markers" d=" M 129 383 L 133 383" stroke-linejoin="bevel" stroke-miterlimit="10"/><path fill="none" stroke="black" paint-order="fill stroke markers" d=" M 129 368 L 133 368" stroke-linejoin="bevel" stroke-miterlimit="10"/><path fill="none" stroke="black" paint-order="fill stroke markers" d=" M 129 354 L 133 354" stroke-linejoin="bevel" stroke-miterlimit="10"/><path fill="none" stroke="black" paint-order="fill stroke markers" d=" M 129 339 L 133 339" stroke-linejoin="bevel" stroke-miterlimit="10"/><path fill="none" stroke="black" paint-order="fill stroke markers" d=" M 129 325 L 133 325" stroke-linejoin="bevel" stroke-miterlimit="10"/><path fill="none" stroke="black" paint-order="fill stroke markers" d=" M 129 310 L 133 310" stroke-linejoin="bevel" stroke-miterlimit="10"/><path fill="none" stroke="black" paint-order="fill stroke markers" d=" M 129 295 L 133 295" stroke-linejoin="bevel" stroke-miterlimit="10"/><path fill="none" stroke="black" paint-order="fill stroke markers" d=" M 129 281 L 133 281" stroke-linejoin="bevel" stroke-miterlimit="10"/><path fill="none" stroke="black" paint-order="fill stroke markers" d=" M 129 266 L 133 266" stroke-linejoin="bevel" stroke-miterlimit="10"/><path fill="none" stroke="black" paint-order="fill stroke markers" d=" M 129 252 L 133 252" stroke-linejoin="bevel" stroke-miterlimit="10"/><path fill="none" stroke="black" paint-order="fill stroke markers" d=" M 129 237 L 133 237" stroke-linejoin="bevel" stroke-miterlimit="10"/><path fill="none" stroke="black" paint-order="fill stroke markers" d=" M 129 223 L 133 223" stroke-linejoin="bevel" stroke-miterlimit="10"/><path fill="none" stroke="black" paint-order="fill stroke markers" d=" M 129 208 L 133 208" stroke-linejoin="bevel" stroke-miterlimit="10"/><path fill="none" stroke="black" paint-order="fill stroke markers" d=" M 129 194 L 133 194" stroke-linejoin="bevel" stroke-miterlimit="10"/><path fill="none" stroke="black" paint-order="fill stroke markers" d=" M 129 179 L 133 179" stroke-linejoin="bevel" stroke-miterlimit="10"/><path fill="none" stroke="black" paint-order="fill stroke markers" d=" M 129 165 L 133 165" stroke-linejoin="bevel" stroke-miterlimit="10"/><path fill="none" stroke="black" paint-order="fill stroke markers" d=" M 129 150 L 133 150" stroke-linejoin="bevel" stroke-miterlimit="10"/><path fill="none" stroke="black" paint-order="fill stroke markers" d=" M 129 136 L 133 136" stroke-linejoin="bevel" stroke-miterlimit="10"/><path fill="none" stroke="black" paint-order="fill stroke markers" d=" M 129 121 L 133 121" stroke-linejoin="bevel" stroke-miterlimit="10"/><path fill="none" stroke="black" paint-order="fill stroke markers" d=" M 129 107 L 133 107" stroke-linejoin="bevel" stroke-miterlimit="10"/><path fill="none" stroke="black" paint-order="fill stroke markers" d=" M 129 92 L 133 92" stroke-linejoin="bevel" stroke-miterlimit="10"/><path fill="none" stroke="black" paint-order="fill stroke markers" d=" M 129 77 L 133 77" stroke-linejoin="bevel" stroke-miterlimit="10"/><path fill="none" stroke="black" paint-order="fill stroke markers" d=" M 129 63 L 133 63" stroke-linejoin="bevel" stroke-miterlimit="10"/><path fill="none" stroke="black" paint-order="fill stroke markers" d=" M 129 48 L 133 48" stroke-linejoin="bevel" stroke-miterlimit="10"/><path fill="" stroke="black" paint-order="fill stroke markers" d=" M 129 34 L 133 34" stroke-linejoin="bevel" stroke-miterlimit="10"/><g transform="translate(122,528) rotate(0,0,0)"><text fill="" stroke="none" font-family="helvetica" font-size="20px" font-style="normal" font-weight="normal" text-decoration="normal" x="0" y="0" text-anchor="end" dominant-baseline="central">0</text><g transform="rotate(0,0,0) translate(-122,-528) translate(122,455) rotate(0,0,0)"><text fill="" stroke="none" font-family="helvetica" font-size="20px" font-style="normal" font-weight="normal" text-decoration="normal" x="0" y="0" text-anchor="end" dominant-baseline="central">1000</text><g transform="rotate(0,0,0) translate(-122,-455) translate(122,383) rotate(0,0,0)"><text fill="" stroke="none" font-family="helvetica" font-size="20px" font-style="normal" font-weight="normal" text-decoration="normal" x="0" y="0" text-anchor="end" dominant-baseline="central">2000</text><g transform="rotate(0,0,0) translate(-122,-383) translate(122,310) rotate(0,0,0)"><text fill="" stroke="none" font-family="helvetica" font-size="20px" font-style="normal" font-weight="normal" text-decoration="normal" x="0" y="0" text-anchor="end" dominant-baseline="central">3000</text><g transform="rotate(0,0,0) translate(-122,-310) translate(122,237) rotate(0,0,0)"><text fill="" stroke="none" font-family="helvetica" font-size="20px" font-style="normal" font-weight="normal" text-decoration="normal" x="0" y="0" text-anchor="end" dominant-baseline="central">4000</text><g transform="rotate(0,0,0) translate(-122,-237) translate(122,165) rotate(0,0,0)"><text fill="" stroke="none" font-family="helvetica" font-size="20px" font-style="normal" font-weight="normal" text-decoration="normal" x="0" y="0" text-anchor="end" dominant-baseline="central">5000</text><g transform="rotate(0,0,0) translate(-122,-165) translate(122,92) rotate(0,0,0)"><text fill="" stroke="none" font-family="helvetica" font-size="20px" font-style="normal" font-weight="normal" text-decoration="normal" x="0" y="0" text-anchor="end" dominant-baseline="central">6000</text><g transform="rotate(0,0,0) translate(-122,-92) translate(29,280) rotate(-90,0,0)"><text fill="" stroke="none" font-family="helvetica" font-size="20px" font-style="italic" font-weight="normal" text-decoration="normal" x="0" y="0" text-anchor="middle" dominant-baseline="alphabetic">Images/Second</text><g transform="rotate(90,0,0) translate(-29,-280)"/></g></g></g></g></g></g></g></g></g><g/><g><path fill="#ffffff" stroke="#e5e5e5" paint-order="fill stroke markers" d=" M 1295 36 L 1580 36 L 1580 128 L 1295 128 L 1295 36 Z" fill-opacity="0.95" stroke-linejoin="bevel" stroke-miterlimit="10" stroke-opacity="0.5"/><text fill="#444444" stroke="none" font-family="helvetica" font-size="20px" font-style="normal" font-weight="normal" text-decoration="normal" x="1330" y="57" text-anchor="start" dominant-baseline="central">Single GPU</text><rect fill="#8a4b9a" stroke="none" x="1307" y="48" width="16" height="16"/><path fill="none" stroke="white" paint-order="fill stroke markers" d=" M 1307 48 L 1323 48 L 1323 64 L 1307 64 L 1307 48 Z" stroke-linejoin="bevel" stroke-miterlimit="10"/><text fill="#444444" stroke="none" font-family="helvetica" font-size="20px" font-style="normal" font-weight="normal" text-decoration="normal" x="1330" y="82" text-anchor="start" dominant-baseline="central">IntelMPI</text><rect fill="#717cbb" stroke="none" x="1307" y="73" width="16" height="16"/><path fill="none" stroke="white" paint-order="fill stroke markers" d=" M 1307 73 L 1323 73 L 1323 89 L 1307 89 L 1307 73 Z" stroke-linejoin="bevel" stroke-miterlimit="10"/><text fill="#444444" stroke="none" font-family="helvetica" font-size="20px" font-style="normal" font-weight="normal" text-decoration="normal" x="1330" y="107" text-anchor="start" dominant-baseline="central">OpenMPI+NCCL</text><rect fill="#89b9df" stroke="none" x="1307" y="98" width="16" height="16"/><path fill="none" stroke="white" paint-order="fill stroke markers" d=" M 1307 98 L 1323 98 L 1323 114 L 1307 114 L 1307 98 Z" stroke-linejoin="bevel" stroke-miterlimit="10"/></g><g fill="#444444"><path fill="" stroke="none" d=""/><g transform="translate(133,26)"><path fill="none" stroke="none"/><text fill="" stroke="none" font-family="helvetica" font-size="10pt" font-style="normal" font-weight="bold" text-decoration="normal" x="0" y="0" text-anchor="start" dominant-baseline="text-after-edge">Training throughput for ResNet50 with synthetic data (V100)</text></g></g></g></g></g></svg>