<svg version="1.1" xmlns="http://www.w3.org/2000/svg" xmlns:xlink="http://www.w3.org/1999/xlink" width="1600" height="800" style="width: 1600px; height: 800px;"><defs><clipPath id="CQkUxTwsdTBi"><path fill="none" stroke="none" d=" M 111 31 L 1295 31 L 1295 528 L 111 528 L 111 31 Z"/></clipPath><clipPath id="UuEbWvPJVWVl"><path fill="none" stroke="none" d=" M 111 31 L 1295 31 L 1295 528 L 111 528 L 111 31 Z"/></clipPath></defs><g><g/><g/><g/><g transform="scale(1,1) translate(0.5,0.5)"><rect fill="#FFFFFF" stroke="none" x="0" y="0" width="1600" height="800"/><rect fill="#ffffff" stroke="none" x="0" y="0" width="1600" height="800"/><rect fill="#FFFFFF" stroke="none" x="111" y="31" width="1184" height="497"/><rect fill="#ffffff" stroke="none" x="111" y="31" width="1184" height="497"/><g><rect fill="none" stroke="#e5e5e5" x="111" y="31" width="1184" height="497" stroke-linejoin="bevel" stroke-miterlimit="10"/></g><g clip-path="url(#CQkUxTwsdTBi)"><g><g/><g><path fill="none" stroke="#e5e5e5" paint-order="fill stroke markers" d=" M 111 427 L 1295 427" stroke-linejoin="bevel" stroke-miterlimit="10"/><path fill="none" stroke="#e5e5e5" paint-order="fill stroke markers" d=" M 111 325 L 1295 325" stroke-linejoin="bevel" stroke-miterlimit="10"/><path fill="none" stroke="#e5e5e5" paint-order="fill stroke markers" d=" M 111 224 L 1295 224" stroke-linejoin="bevel" stroke-miterlimit="10"/><path fill="none" stroke="#e5e5e5" paint-order="fill stroke markers" d=" M 111 122 L 1295 122" stroke-linejoin="bevel" stroke-miterlimit="10"/></g><g><path fill="none" stroke="none"/><rect fill="#8a4b9a" stroke="none" x="167.1181041181041" y="512.5089698638027" width="41.39860139860144" height="15.49103013619731"/><path fill="none" stroke="white" paint-order="fill stroke markers" d=" M 167.1181041181041 512.5089698638027 L 208.51670551670554 512.5089698638027 L 208.51670551670554 528 L 167.1181041181041 528 L 167.1181041181041 512.5089698638027 Z" stroke-linejoin="bevel" stroke-miterlimit="10"/><rect fill="#717cbb" stroke="none" x="213.11655011655012" y="512.463318497979" width="41.398601398601386" height="15.536681502020997"/><path fill="none" stroke="white" paint-order="fill stroke markers" d=" M 213.11655011655012 512.463318497979 L 254.5151515151515 512.463318497979 L 254.5151515151515 528 L 213.11655011655012 528 L 213.11655011655012 512.463318497979 Z" stroke-linejoin="bevel" stroke-miterlimit="10"/><rect fill="#89b9df" stroke="none" x="259.1149961149961" y="512.4734632459398" width="41.398601398601386" height="15.526536754060203"/><path fill="none" stroke="white" paint-order="fill stroke markers" d=" M 259.1149961149961 512.4734632459398 L 300.51359751359746 512.4734632459398 L 300.51359751359746 528 L 259.1149961149961 528 L 259.1149961149961 512.4734632459398 Z" stroke-linejoin="bevel" stroke-miterlimit="10"/><rect fill="#717cbb" stroke="none" x="369.5112665112665" y="497.7737234506878" width="41.398601398601386" height="30.226276549312217"/><path fill="none" stroke="white" paint-order="fill stroke markers" d=" M 369.5112665112665 497.7737234506878 L 410.9098679098679 497.7737234506878 L 410.9098679098679 528 L 369.5112665112665 528 L 369.5112665112665 497.7737234506878 Z" stroke-linejoin="bevel" stroke-miterlimit="10"/><rect fill="#89b9df" stroke="none" x="415.5097125097125" y="498.5853032875547" width="41.3986013986015" height="29.414696712445277"/><path fill="none" stroke="white" paint-order="fill stroke markers" d=" M 415.5097125097125 498.5853032875547 L 456.90831390831397 498.5853032875547 L 456.90831390831397 528 L 415.5097125097125 528 L 415.5097125097125 498.5853032875547 Z" stroke-linejoin="bevel" stroke-miterlimit="10"/><rect fill="#717cbb" stroke="none" x="525.9059829059829" y="481.4457516077215" width="41.398601398601386" height="46.55424839227851"/><path fill="none" stroke="white" paint-order="fill stroke markers" d=" M 525.9059829059829 481.4457516077215 L 567.3045843045843 481.4457516077215 L 567.3045843045843 528 L 525.9059829059829 528 L 525.9059829059829 481.4457516077215 Z" stroke-linejoin="bevel" stroke-miterlimit="10"/><rect fill="#89b9df" stroke="none" x="571.9044289044289" y="483.16021401310286" width="41.398601398601386" height="44.83978598689714"/><path fill="none" stroke="white" paint-order="fill stroke markers" d=" M 571.9044289044289 483.16021401310286 L 613.3030303030303 483.16021401310286 L 613.3030303030303 528 L 571.9044289044289 528 L 571.9044289044289 483.16021401310286 Z" stroke-linejoin="bevel" stroke-miterlimit="10"/><rect fill="#717cbb" stroke="none" x="682.3006993006993" y="467.7199076167098" width="41.398601398601386" height="60.280092383290196"/><path fill="none" stroke="white" paint-order="fill stroke markers" d=" M 682.3006993006993 467.7199076167098 L 723.6993006993007 467.7199076167098 L 723.6993006993007 528 L 682.3006993006993 528 L 682.3006993006993 467.7199076167098 Z" stroke-linejoin="bevel" stroke-miterlimit="10"/><rect fill="#89b9df" stroke="none" x="728.2991452991453" y="480.8269219821105" width="41.398601398601386" height="47.17307801788951"/><path fill="none" stroke="white" paint-order="fill stroke markers" d=" M 728.2991452991453 480.8269219821105 L 769.6977466977467 480.8269219821105 L 769.6977466977467 528 L 728.2991452991453 528 L 728.2991452991453 480.8269219821105 Z" stroke-linejoin="bevel" stroke-miterlimit="10"/><rect fill="#717cbb" stroke="none" x="838.6954156954157" y="407.2369202742029" width="41.398601398601386" height="120.76307972579713"/><path fill="none" stroke="white" paint-order="fill stroke markers" d=" M 838.6954156954157 407.2369202742029 L 880.0940170940171 407.2369202742029 L 880.0940170940171 528 L 838.6954156954157 528 L 838.6954156954157 407.2369202742029 Z" stroke-linejoin="bevel" stroke-miterlimit="10"/><rect fill="#89b9df" stroke="none" x="884.6938616938617" y="460.6585289892201" width="41.398601398601386" height="67.34147101077991"/><path fill="none" stroke="white" paint-order="fill stroke markers" d=" M 884.6938616938617 460.6585289892201 L 926.092463092463 460.6585289892201 L 926.092463092463 528 L 884.6938616938617 528 L 884.6938616938617 460.6585289892201 Z" stroke-linejoin="bevel" stroke-miterlimit="10"/><rect fill="#717cbb" stroke="none" x="995.0901320901321" y="287.2296242714881" width="41.398601398601386" height="240.7703757285119"/><path fill="none" stroke="white" paint-order="fill stroke markers" d=" M 995.0901320901321 287.2296242714881 L 1036.4887334887335 287.2296242714881 L 1036.4887334887335 528 L 995.0901320901321 528 L 995.0901320901321 287.2296242714881 Z" stroke-linejoin="bevel" stroke-miterlimit="10"/><rect fill="#89b9df" stroke="none" x="1041.088578088578" y="400.52553545136203" width="41.398601398601386" height="127.47446454863797"/><path fill="none" stroke="white" paint-order="fill stroke markers" d=" M 1041.088578088578 400.52553545136203 L 1082.4871794871794 400.52553545136203 L 1082.4871794871794 528 L 1041.088578088578 528 L 1041.088578088578 400.52553545136203 Z" stroke-linejoin="bevel" stroke-miterlimit="10"/><rect fill="#717cbb" stroke="none" x="1151.4848484848483" y="54.666666666666686" width="41.398601398601386" height="473.3333333333333"/><path fill="none" stroke="white" paint-order="fill stroke markers" d=" M 1151.4848484848483 54.666666666666686 L 1192.8834498834497 54.666666666666686 L 1192.8834498834497 528 L 1151.4848484848483 528 L 1151.4848484848483 54.666666666666686 Z" stroke-linejoin="bevel" stroke-miterlimit="10"/><rect fill="#89b9df" stroke="none" x="1197.4832944832942" y="321.51205637657915" width="41.398601398601386" height="206.48794362342085"/><path fill="none" stroke="white" paint-order="fill stroke markers" d=" M 1197.4832944832942 321.51205637657915 L 1238.8818958818956 321.51205637657915 L 1238.8818958818956 528 L 1197.4832944832942 528 L 1197.4832944832942 321.51205637657915 Z" stroke-linejoin="bevel" stroke-miterlimit="10"/></g></g></g><g clip-path="url(#UuEbWvPJVWVl)"><g/></g><g><g fill="#444444" stroke="lightgrey" stroke-linejoin="bevel" stroke-miterlimit="10" stroke-width="2"><path fill="none" stroke="black" paint-order="fill stroke markers" d=" M 111 528 L 1295 528" stroke-linejoin="bevel" stroke-miterlimit="10"/><path fill="none" stroke="black" paint-order="fill stroke markers" d=" M 188 534 L 188 526" stroke-linejoin="bevel" stroke-miterlimit="10"/><path fill="none" stroke="black" paint-order="fill stroke markers" d=" M 234 534 L 234 526" stroke-linejoin="bevel" stroke-miterlimit="10"/><path fill="none" stroke="black" paint-order="fill stroke markers" d=" M 280 534 L 280 526" stroke-linejoin="bevel" stroke-miterlimit="10"/><path fill="none" stroke="black" paint-order="fill stroke markers" d=" M 390 534 L 390 526" stroke-linejoin="bevel" stroke-miterlimit="10"/><path fill="none" stroke="black" paint-order="fill stroke markers" d=" M 436 534 L 436 526" stroke-linejoin="bevel" stroke-miterlimit="10"/><path fill="none" stroke="black" paint-order="fill stroke markers" d=" M 547 534 L 547 526" stroke-linejoin="bevel" stroke-miterlimit="10"/><path fill="none" stroke="black" paint-order="fill stroke markers" d=" M 593 534 L 593 526" stroke-linejoin="bevel" stroke-miterlimit="10"/><path fill="none" stroke="black" paint-order="fill stroke markers" d=" M 703 534 L 703 526" stroke-linejoin="bevel" stroke-miterlimit="10"/><path fill="none" stroke="black" paint-order="fill stroke markers" d=" M 749 534 L 749 526" stroke-linejoin="bevel" stroke-miterlimit="10"/><path fill="none" stroke="black" paint-order="fill stroke markers" d=" M 859 534 L 859 526" stroke-linejoin="bevel" stroke-miterlimit="10"/><path fill="none" stroke="black" paint-order="fill stroke markers" d=" M 905 534 L 905 526" stroke-linejoin="bevel" stroke-miterlimit="10"/><path fill="none" stroke="black" paint-order="fill stroke markers" d=" M 1016 534 L 1016 526" stroke-linejoin="bevel" stroke-miterlimit="10"/><path fill="none" stroke="black" paint-order="fill stroke markers" d=" M 1062 534 L 1062 526" stroke-linejoin="bevel" stroke-miterlimit="10"/><path fill="none" stroke="black" paint-order="fill stroke markers" d=" M 1172 534 L 1172 526" stroke-linejoin="bevel" stroke-miterlimit="10"/><path fill="" stroke="" paint-order="fill stroke markers" d=" M 1218 534 L 1218 526" stroke-linejoin="bevel" stroke-miterlimit="10"/><g transform="translate(188,539) rotate(-74.48451336700703,0,0)"><text fill="" stroke="none" font-family="helvetica" font-size="15px" font-style="normal" font-weight="normal" text-decoration="normal" x="0" y="0" text-anchor="end" dominant-baseline="central">Single GPU</text><g transform="rotate(74.48451336700703,0,0) translate(-188,-539) translate(234,539) rotate(-74.48451336700703,0,0)"><text fill="" stroke="none" font-family="helvetica" font-size="15px" font-style="normal" font-weight="normal" text-decoration="normal" x="0" y="0" text-anchor="end" dominant-baseline="central">IntelMPI</text><g transform="rotate(74.48451336700703,0,0) translate(-234,-539) translate(280,539) rotate(-74.48451336700703,0,0)"><text fill="" stroke="none" font-family="helvetica" font-size="15px" font-style="normal" font-weight="normal" text-decoration="normal" x="0" y="0" text-anchor="end" dominant-baseline="central">OpenMPI+NCCL</text><g transform="rotate(74.48451336700703,0,0) translate(-280,-539) translate(390,539) rotate(-74.48451336700703,0,0)"><text fill="" stroke="none" font-family="helvetica" font-size="15px" font-style="normal" font-weight="normal" text-decoration="normal" x="0" y="0" text-anchor="end" dominant-baseline="central">IntelMPI</text><g transform="rotate(74.48451336700703,0,0) translate(-390,-539) translate(436,539) rotate(-74.48451336700703,0,0)"><text fill="" stroke="none" font-family="helvetica" font-size="15px" font-style="normal" font-weight="normal" text-decoration="normal" x="0" y="0" text-anchor="end" dominant-baseline="central">OpenMPI+NCCL</text><g transform="rotate(74.48451336700703,0,0) translate(-436,-539) translate(547,539) rotate(-74.48451336700703,0,0)"><text fill="" stroke="none" font-family="helvetica" font-size="15px" font-style="normal" font-weight="normal" text-decoration="normal" x="0" y="0" text-anchor="end" dominant-baseline="central">IntelMPI</text><g transform="rotate(74.48451336700703,0,0) translate(-547,-539) translate(593,539) rotate(-74.48451336700703,0,0)"><text fill="" stroke="none" font-family="helvetica" font-size="15px" font-style="normal" font-weight="normal" text-decoration="normal" x="0" y="0" text-anchor="end" dominant-baseline="central">OpenMPI+NCCL</text><g transform="rotate(74.48451336700703,0,0) translate(-593,-539) translate(703,539) rotate(-74.48451336700703,0,0)"><text fill="" stroke="none" font-family="helvetica" font-size="15px" font-style="normal" font-weight="normal" text-decoration="normal" x="0" y="0" text-anchor="end" dominant-baseline="central">IntelMPI</text><g transform="rotate(74.48451336700703,0,0) translate(-703,-539) translate(749,539) rotate(-74.48451336700703,0,0)"><text fill="" stroke="none" font-family="helvetica" font-size="15px" font-style="normal" font-weight="normal" text-decoration="normal" x="0" y="0" text-anchor="end" dominant-baseline="central">OpenMPI+NCCL</text><g transform="rotate(74.48451336700703,0,0) translate(-749,-539) translate(859,539) rotate(-74.48451336700703,0,0)"><text fill="" stroke="none" font-family="helvetica" font-size="15px" font-style="normal" font-weight="normal" text-decoration="normal" x="0" y="0" text-anchor="end" dominant-baseline="central">IntelMPI</text><g transform="rotate(74.48451336700703,0,0) translate(-859,-539) translate(905,539) rotate(-74.48451336700703,0,0)"><text fill="" stroke="none" font-family="helvetica" font-size="15px" font-style="normal" font-weight="normal" text-decoration="normal" x="0" y="0" text-anchor="end" dominant-baseline="central">OpenMPI+NCCL</text><g transform="rotate(74.48451336700703,0,0) translate(-905,-539) translate(1016,539) rotate(-74.48451336700703,0,0)"><text fill="" stroke="none" font-family="helvetica" font-size="15px" font-style="normal" font-weight="normal" text-decoration="normal" x="0" y="0" text-anchor="end" dominant-baseline="central">IntelMPI</text><g transform="rotate(74.48451336700703,0,0) translate(-1016,-539) translate(1062,539) rotate(-74.48451336700703,0,0)"><text fill="" stroke="none" font-family="helvetica" font-size="15px" font-style="normal" font-weight="normal" text-decoration="normal" x="0" y="0" text-anchor="end" dominant-baseline="central">OpenMPI+NCCL</text><g transform="rotate(74.48451336700703,0,0) translate(-1062,-539) translate(1172,539) rotate(-74.48451336700703,0,0)"><text fill="" stroke="none" font-family="helvetica" font-size="15px" font-style="normal" font-weight="normal" text-decoration="normal" x="0" y="0" text-anchor="end" dominant-baseline="central">IntelMPI</text><g transform="rotate(74.48451336700703,0,0) translate(-1172,-539) translate(1218,539) rotate(-74.48451336700703,0,0)"><text fill="" stroke="none" font-family="helvetica" font-size="15px" font-style="normal" font-weight="normal" text-decoration="normal" x="0" y="0" text-anchor="end" dominant-baseline="central">OpenMPI+NCCL</text><g transform="rotate(74.48451336700703,0,0) translate(-1218,-539) translate(234,738) rotate(0,0,0)"><text fill="" stroke="none" font-family="helvetica" font-size="20px" font-style="normal" font-weight="bold" text-decoration="normal" x="0" y="0" text-anchor="middle" dominant-baseline="hanging">1</text><g transform="rotate(0,0,0) translate(-234,-738) translate(413,738) rotate(0,0,0)"><text fill="" stroke="none" font-family="helvetica" font-size="20px" font-style="normal" font-weight="bold" text-decoration="normal" x="0" y="0" text-anchor="middle" dominant-baseline="hanging">2</text><g transform="rotate(0,0,0) translate(-413,-738) translate(570,738) rotate(0,0,0)"><text fill="" stroke="none" font-family="helvetica" font-size="20px" font-style="normal" font-weight="bold" text-decoration="normal" x="0" y="0" text-anchor="middle" dominant-baseline="hanging">3</text><g transform="rotate(0,0,0) translate(-570,-738) translate(726,738) rotate(0,0,0)"><text fill="" stroke="none" font-family="helvetica" font-size="20px" font-style="normal" font-weight="bold" text-decoration="normal" x="0" y="0" text-anchor="middle" dominant-baseline="hanging">4</text><g transform="rotate(0,0,0) translate(-726,-738) translate(882,738) rotate(0,0,0)"><text fill="" stroke="none" font-family="helvetica" font-size="20px" font-style="normal" font-weight="bold" text-decoration="normal" x="0" y="0" text-anchor="middle" dominant-baseline="hanging">8</text><g transform="rotate(0,0,0) translate(-882,-738) translate(1039,738) rotate(0,0,0)"><text fill="" stroke="none" font-family="helvetica" font-size="20px" font-style="normal" font-weight="bold" text-decoration="normal" x="0" y="0" text-anchor="middle" dominant-baseline="hanging">16</text><g transform="rotate(0,0,0) translate(-1039,-738) translate(1195,738) rotate(0,0,0)"><text fill="" stroke="none" font-family="helvetica" font-size="20px" font-style="normal" font-weight="bold" text-decoration="normal" x="0" y="0" text-anchor="middle" dominant-baseline="hanging">32</text><g transform="rotate(0,0,0) translate(-1195,-738) translate(703,771) rotate(0,0,0)"><text fill="" stroke="none" font-family="helvetica" font-size="20px" font-style="italic" font-weight="normal" text-decoration="normal" x="0" y="0" text-anchor="middle" dominant-baseline="hanging">Number of GPUs</text><g transform="rotate(0,0,0) translate(-703,-771)"><path fill="none" stroke="" paint-order="fill stroke markers" d=" M 335 754 L 335 531"/><path fill="none" stroke="" paint-order="fill stroke markers" d=" M 491 754 L 491 531"/><path fill="none" stroke="" paint-order="fill stroke markers" d=" M 648 754 L 648 531"/><path fill="none" stroke="" paint-order="fill stroke markers" d=" M 804 754 L 804 531"/><path fill="none" stroke="" paint-order="fill stroke markers" d=" M 961 754 L 961 531"/><path fill="none" stroke="" paint-order="fill stroke markers" d=" M 1117 754 L 1117 531"/></g></g></g></g></g></g></g></g></g></g></g></g></g></g></g></g></g></g></g></g></g></g></g></g></g><g fill="#444444"><path fill="none" stroke="black" paint-order="fill stroke markers" d=" M 111 528 L 111 31" stroke-linejoin="bevel" stroke-miterlimit="10"/><path fill="none" stroke="black" paint-order="fill stroke markers" d=" M 105 528 L 113 528" stroke-linejoin="bevel" stroke-miterlimit="10"/><path fill="none" stroke="black" paint-order="fill stroke markers" d=" M 105 427 L 113 427" stroke-linejoin="bevel" stroke-miterlimit="10"/><path fill="none" stroke="black" paint-order="fill stroke markers" d=" M 105 325 L 113 325" stroke-linejoin="bevel" stroke-miterlimit="10"/><path fill="none" stroke="black" paint-order="fill stroke markers" d=" M 105 224 L 113 224" stroke-linejoin="bevel" stroke-miterlimit="10"/><path fill="none" stroke="black" paint-order="fill stroke markers" d=" M 105 122 L 113 122" stroke-linejoin="bevel" stroke-miterlimit="10"/><path fill="none" stroke="black" paint-order="fill stroke markers" d=" M 107 528 L 111 528" stroke-linejoin="bevel" stroke-miterlimit="10"/><path fill="none" stroke="black" paint-order="fill stroke markers" d=" M 107 508 L 111 508" stroke-linejoin="bevel" stroke-miterlimit="10"/><path fill="none" stroke="black" paint-order="fill stroke markers" d=" M 107 487 L 111 487" stroke-linejoin="bevel" stroke-miterlimit="10"/><path fill="none" stroke="black" paint-order="fill stroke markers" d=" M 107 467 L 111 467" stroke-linejoin="bevel" stroke-miterlimit="10"/><path fill="none" stroke="black" paint-order="fill stroke markers" d=" M 107 447 L 111 447" stroke-linejoin="bevel" stroke-miterlimit="10"/><path fill="none" stroke="black" paint-order="fill stroke markers" d=" M 107 427 L 111 427" stroke-linejoin="bevel" stroke-miterlimit="10"/><path fill="none" stroke="black" paint-order="fill stroke markers" d=" M 107 406 L 111 406" stroke-linejoin="bevel" stroke-miterlimit="10"/><path fill="none" stroke="black" paint-order="fill stroke markers" d=" M 107 386 L 111 386" stroke-linejoin="bevel" stroke-miterlimit="10"/><path fill="none" stroke="black" paint-order="fill stroke markers" d=" M 107 366 L 111 366" stroke-linejoin="bevel" stroke-miterlimit="10"/><path fill="none" stroke="black" paint-order="fill stroke markers" d=" M 107 345 L 111 345" stroke-linejoin="bevel" stroke-miterlimit="10"/><path fill="none" stroke="black" paint-order="fill stroke markers" d=" M 107 325 L 111 325" stroke-linejoin="bevel" stroke-miterlimit="10"/><path fill="none" stroke="black" paint-order="fill stroke markers" d=" M 107 305 L 111 305" stroke-linejoin="bevel" stroke-miterlimit="10"/><path fill="none" stroke="black" paint-order="fill stroke markers" d=" M 107 285 L 111 285" stroke-linejoin="bevel" stroke-miterlimit="10"/><path fill="none" stroke="black" paint-order="fill stroke markers" d=" M 107 264 L 111 264" stroke-linejoin="bevel" stroke-miterlimit="10"/><path fill="none" stroke="black" paint-order="fill stroke markers" d=" M 107 244 L 111 244" stroke-linejoin="bevel" stroke-miterlimit="10"/><path fill="none" stroke="black" paint-order="fill stroke markers" d=" M 107 224 L 111 224" stroke-linejoin="bevel" stroke-miterlimit="10"/><path fill="none" stroke="black" paint-order="fill stroke markers" d=" M 107 203 L 111 203" stroke-linejoin="bevel" stroke-miterlimit="10"/><path fill="none" stroke="black" paint-order="fill stroke markers" d=" M 107 183 L 111 183" stroke-linejoin="bevel" stroke-miterlimit="10"/><path fill="none" stroke="black" paint-order="fill stroke markers" d=" M 107 163 L 111 163" stroke-linejoin="bevel" stroke-miterlimit="10"/><path fill="none" stroke="black" paint-order="fill stroke markers" d=" M 107 142 L 111 142" stroke-linejoin="bevel" stroke-miterlimit="10"/><path fill="none" stroke="black" paint-order="fill stroke markers" d=" M 107 122 L 111 122" stroke-linejoin="bevel" stroke-miterlimit="10"/><path fill="none" stroke="black" paint-order="fill stroke markers" d=" M 107 102 L 111 102" stroke-linejoin="bevel" stroke-miterlimit="10"/><path fill="none" stroke="black" paint-order="fill stroke markers" d=" M 107 82 L 111 82" stroke-linejoin="bevel" stroke-miterlimit="10"/><path fill="none" stroke="black" paint-order="fill stroke markers" d=" M 107 61 L 111 61" stroke-linejoin="bevel" stroke-miterlimit="10"/><path fill="" stroke="black" paint-order="fill stroke markers" d=" M 107 41 L 111 41" stroke-linejoin="bevel" stroke-miterlimit="10"/><g transform="translate(100,528) rotate(0,0,0)"><text fill="" stroke="none" font-family="helvetica" font-size="20px" font-style="normal" font-weight="normal" text-decoration="normal" x="0" y="0" text-anchor="end" dominant-baseline="central">0</text><g transform="rotate(0,0,0) translate(-100,-528) translate(100,427) rotate(0,0,0)"><text fill="" stroke="none" font-family="helvetica" font-size="20px" font-style="normal" font-weight="normal" text-decoration="normal" x="0" y="0" text-anchor="end" dominant-baseline="central">200</text><g transform="rotate(0,0,0) translate(-100,-427) translate(100,325) rotate(0,0,0)"><text fill="" stroke="none" font-family="helvetica" font-size="20px" font-style="normal" font-weight="normal" text-decoration="normal" x="0" y="0" text-anchor="end" dominant-baseline="central">400</text><g transform="rotate(0,0,0) translate(-100,-325) translate(100,224) rotate(0,0,0)"><text fill="" stroke="none" font-family="helvetica" font-size="20px" font-style="normal" font-weight="normal" text-decoration="normal" x="0" y="0" text-anchor="end" dominant-baseline="central">600</text><g transform="rotate(0,0,0) translate(-100,-224) translate(100,122) rotate(0,0,0)"><text fill="" stroke="none" font-family="helvetica" font-size="20px" font-style="normal" font-weight="normal" text-decoration="normal" x="0" y="0" text-anchor="end" dominant-baseline="central">800</text><g transform="rotate(0,0,0) translate(-100,-122) translate(29,280) rotate(-90,0,0)"><text fill="" stroke="none" font-family="helvetica" font-size="20px" font-style="italic" font-weight="normal" text-decoration="normal" x="0" y="0" text-anchor="middle" dominant-baseline="alphabetic">Images/Second</text><g transform="rotate(90,0,0) translate(-29,-280)"/></g></g></g></g></g></g></g><g/><g><path fill="#ffffff" stroke="#e5e5e5" paint-order="fill stroke markers" d=" M 1295 36 L 1580 36 L 1580 128 L 1295 128 L 1295 36 Z" fill-opacity="0.95" stroke-linejoin="bevel" stroke-miterlimit="10" stroke-opacity="0.5"/><text fill="#444444" stroke="none" font-family="helvetica" font-size="20px" font-style="normal" font-weight="normal" text-decoration="normal" x="1330" y="57" text-anchor="start" dominant-baseline="central">Single GPU</text><rect fill="#8a4b9a" stroke="none" x="1307" y="48" width="16" height="16"/><path fill="none" stroke="white" paint-order="fill stroke markers" d=" M 1307 48 L 1323 48 L 1323 64 L 1307 64 L 1307 48 Z" stroke-linejoin="bevel" stroke-miterlimit="10"/><text fill="#444444" stroke="none" font-family="helvetica" font-size="20px" font-style="normal" font-weight="normal" text-decoration="normal" x="1330" y="82" text-anchor="start" dominant-baseline="central">IntelMPI</text><rect fill="#717cbb" stroke="none" x="1307" y="73" width="16" height="16"/><path fill="none" stroke="white" paint-order="fill stroke markers" d=" M 1307 73 L 1323 73 L 1323 89 L 1307 89 L 1307 73 Z" stroke-linejoin="bevel" stroke-miterlimit="10"/><text fill="#444444" stroke="none" font-family="helvetica" font-size="20px" font-style="normal" font-weight="normal" text-decoration="normal" x="1330" y="107" text-anchor="start" dominant-baseline="central">OpenMPI+NCCL</text><rect fill="#89b9df" stroke="none" x="1307" y="98" width="16" height="16"/><path fill="none" stroke="white" paint-order="fill stroke markers" d=" M 1307 98 L 1323 98 L 1323 114 L 1307 114 L 1307 98 Z" stroke-linejoin="bevel" stroke-miterlimit="10"/></g><g fill="#444444"><path fill="" stroke="none" d=""/><g transform="translate(111,26)"><path fill="none" stroke="none"/><text fill="" stroke="none" font-family="helvetica" font-size="10pt" font-style="normal" font-weight="bold" text-decoration="normal" x="0" y="0" text-anchor="start" dominant-baseline="text-after-edge">Training throughput for ResNet50 with synthetic data (k80)</text></g></g></g></g></g></svg>